<svg width="24" height="25" viewBox="0 0 24 25" fill="none" xmlns="http://www.w3.org/2000/svg">
<mask id="mask0_3234_25815" style="mask-type:alpha" maskUnits="userSpaceOnUse" x="0" y="0" width="24" height="25">
<path d="M0 0.333374H24V24.3334H0V0.333374Z" fill="#D9D9D9"/>
</mask>
<g mask="url(#mask0_3234_25815)">
<path d="M7.55556 17.8889H13.1111C13.4259 17.8889 13.69 17.7823 13.9033 17.5689C14.1159 17.3563 14.2222 17.0926 14.2222 16.7778C14.2222 16.463 14.1159 16.1989 13.9033 15.9856C13.69 15.773 13.4259 15.6667 13.1111 15.6667H7.55556C7.24074 15.6667 6.97667 15.773 6.76333 15.9856C6.55074 16.1989 6.44444 16.463 6.44444 16.7778C6.44444 17.0926 6.55074 17.3563 6.76333 17.5689C6.97667 17.7823 7.24074 17.8889 7.55556 17.8889ZM7.55556 13.4445H16.4444C16.7593 13.4445 17.023 13.3378 17.2356 13.1245C17.4489 12.9119 17.5556 12.6482 17.5556 12.3334C17.5556 12.0186 17.4489 11.7545 17.2356 11.5412C17.023 11.3286 16.7593 11.2223 16.4444 11.2223H7.55556C7.24074 11.2223 6.97667 11.3286 6.76333 11.5412C6.55074 11.7545 6.44444 12.0186 6.44444 12.3334C6.44444 12.6482 6.55074 12.9119 6.76333 13.1245C6.97667 13.3378 7.24074 13.4445 7.55556 13.4445ZM7.55556 9.00004H16.4444C16.7593 9.00004 17.023 8.89337 17.2356 8.68004C17.4489 8.46745 17.5556 8.20374 17.5556 7.88893C17.5556 7.57411 17.4489 7.31004 17.2356 7.09671C17.023 6.88412 16.7593 6.77782 16.4444 6.77782H7.55556C7.24074 6.77782 6.97667 6.88412 6.76333 7.09671C6.55074 7.31004 6.44444 7.57411 6.44444 7.88893C6.44444 8.20374 6.55074 8.46745 6.76333 8.68004C6.97667 8.89337 7.24074 9.00004 7.55556 9.00004ZM4.22222 22.3334C3.61111 22.3334 3.08778 22.116 2.65222 21.6812C2.21741 21.2456 2 20.7223 2 20.1112V4.5556C2 3.94449 2.21741 3.42115 2.65222 2.9856C3.08778 2.55078 3.61111 2.33337 4.22222 2.33337H19.7778C20.3889 2.33337 20.9122 2.55078 21.3478 2.9856C21.7826 3.42115 22 3.94449 22 4.5556V20.1112C22 20.7223 21.7826 21.2456 21.3478 21.6812C20.9122 22.116 20.3889 22.3334 19.7778 22.3334H4.22222Z" fill="#1B1B1F"/>
<path d="M7.61188 7.89575L16.4082 7.89575" stroke="#EABF4E" stroke-width="2.4" stroke-linecap="round"/>
<path d="M7.61188 12.3334L16.4082 12.3334" stroke="#EABF4E" stroke-width="2.4" stroke-linecap="round"/>
<path d="M7.61188 16.7811L13.125 16.7811" stroke="#EABF4E" stroke-width="2.4" stroke-linecap="round"/>
</g>
</svg>
