<svg width="20" height="20" viewBox="0 0 20 20" fill="none" xmlns="http://www.w3.org/2000/svg">
<g clip-path="url(#clip0_2736_23563)">
<circle cx="10" cy="10" r="9.75" stroke="#EABF4E" stroke-width="0.5"/>
<g clip-path="url(#clip1_2736_23563)">
<path d="M10.0001 5.55567C9.09428 5.55551 8.22463 5.91029 7.57817 6.54367C6.93171 7.17706 6.5601 8.03845 6.54328 8.94255C6.5387 9.6794 6.78218 10.3964 7.23463 10.9786L9.73834 14.3162C9.76926 14.3561 9.80892 14.3884 9.85429 14.4106C9.89966 14.4329 9.94953 14.4444 10.0001 14.4444C10.0506 14.4444 10.1005 14.4329 10.1458 14.4106C10.1912 14.3884 10.2309 14.3561 10.2618 14.3162L12.7655 10.9786C13.2122 10.399 13.4551 9.68863 13.4569 8.95734C13.4543 8.5072 13.3627 8.06199 13.1875 7.64723C13.0123 7.23247 12.7567 6.85631 12.4356 6.5403C12.1145 6.2243 11.7341 5.97466 11.3161 5.8057C10.8982 5.63674 10.451 5.55177 10.0001 5.55567ZM10.0001 10.5399C9.66074 10.5418 9.32847 10.4431 9.04538 10.2564C8.76228 10.0696 8.54111 9.80308 8.4099 9.49067C8.27869 9.17826 8.24334 8.83399 8.30834 8.5015C8.37334 8.16901 8.53576 7.86328 8.77501 7.62304C9.01426 7.38281 9.31957 7.2189 9.65224 7.15209C9.98491 7.08528 10.33 7.11858 10.6436 7.24776C10.9573 7.37695 11.2255 7.5962 11.4143 7.87773C11.603 8.15926 11.7038 8.4904 11.7038 8.82916C11.7038 9.28116 11.5246 9.71479 11.2054 10.0353C10.8861 10.3559 10.4528 10.5372 10.0001 10.5399Z" fill="#EABF4E"/>
</g>
</g>
<defs>
<clipPath id="clip0_2736_23563">
<rect width="20" height="20" fill="white"/>
</clipPath>
<clipPath id="clip1_2736_23563">
<rect width="6.91364" height="8.88889" fill="white" transform="translate(6.54321 5.55554)"/>
</clipPath>
</defs>
</svg>
