<svg width="24" height="25" viewBox="0 0 24 25" fill="none" xmlns="http://www.w3.org/2000/svg">
<mask id="mask0_3275_26827" style="mask-type:alpha" maskUnits="userSpaceOnUse" x="0" y="0" width="24" height="25">
<rect y="0.666748" width="24" height="24" fill="#D9D9D9"/>
</mask>
<g mask="url(#mask0_3275_26827)">
<path d="M5 22.6667C4.45 22.6667 3.97917 22.4709 3.5875 22.0792C3.19583 21.6876 3 21.2167 3 20.6667V6.66675C3 6.11675 3.19583 5.64591 3.5875 5.25425C3.97917 4.86258 4.45 4.66675 5 4.66675H6V3.66675C6 3.38341 6.09583 3.14591 6.2875 2.95425C6.47917 2.76258 6.71667 2.66675 7 2.66675C7.28333 2.66675 7.52083 2.76258 7.7125 2.95425C7.90417 3.14591 8 3.38341 8 3.66675V4.66675H16V3.66675C16 3.38341 16.0958 3.14591 16.2875 2.95425C16.4792 2.76258 16.7167 2.66675 17 2.66675C17.2833 2.66675 17.5208 2.76258 17.7125 2.95425C17.9042 3.14591 18 3.38341 18 3.66675V4.66675H19C19.55 4.66675 20.0208 4.86258 20.4125 5.25425C20.8042 5.64591 21 6.11675 21 6.66675V20.6667C21 21.2167 20.8042 21.6876 20.4125 22.0792C20.0208 22.4709 19.55 22.6667 19 22.6667H5ZM5 20.6667H19V10.6667H5V20.6667Z" fill="#151513"/>
<rect x="4.97583" y="10.5139" width="14.0483" height="10.2738" fill="#151513"/>
<rect x="4" y="5.66675" width="16" height="16" rx="1" fill="#151513"/>
<path d="M9.23209 15.6271L7.66038 14.0589C7.44711 13.8461 7.33816 13.5848 7.33352 13.2748C7.32889 12.9649 7.4332 12.7035 7.64647 12.4907L8.04983 12.0883L11.2211 15.2247L10.8177 15.6271C10.6044 15.8399 10.3402 15.9463 10.0249 15.9463C9.70963 15.9463 9.44536 15.8399 9.23209 15.6271ZM13.5578 12.8932L10.4143 9.72902L10.8177 9.32656C11.031 9.11377 11.2929 9.00968 11.6036 9.01431C11.9142 9.01893 12.1761 9.12764 12.3894 9.34044L13.9611 10.9086C14.1744 11.1214 14.281 11.3851 14.281 11.6997C14.281 12.0142 14.1744 12.2779 13.9611 12.4907L13.5578 12.8932ZM15.7276 18.1668L8.85655 11.3111L9.63545 10.5339L16.5204 17.4035C16.6224 17.5053 16.671 17.6325 16.6664 17.7851C16.6618 17.9378 16.6085 18.065 16.5065 18.1668C16.4045 18.2686 16.2746 18.3194 16.117 18.3194C15.9594 18.3194 15.8296 18.2686 15.7276 18.1668Z" fill="#EABF4E"/>
</g>
</svg>
