<svg width="36" height="36" viewBox="0 0 36 36" fill="none" xmlns="http://www.w3.org/2000/svg">
<rect width="36" height="36" rx="2" fill="black"/>
<path fill-rule="evenodd" clip-rule="evenodd" d="M5.434 3C5.173 3 4.914 3.01 4.658 3.032C4.4795 3.0458 4.3126 3.1263 4.1907 3.2575C4.0688 3.3887 4.0007 3.5609 4 3.74V31.29C4 31.682 4.32 32 4.717 32H6.867C7.0562 32.0008 7.238 31.9265 7.3724 31.7934C7.5068 31.6602 7.5829 31.4792 7.584 31.29V26.104L10.521 27.351C10.896 27.511 11.353 27.679 11.83 27.741C12.315 27.804 12.866 27.763 13.378 27.453C13.7969 27.2012 14.1436 26.8455 14.3845 26.4202C14.6254 25.995 14.7524 25.5147 14.753 25.026V22.895C14.7519 22.7058 14.6758 22.5248 14.5414 22.3916C14.407 22.2585 14.2252 22.1842 14.036 22.185L11.83 21.474C11.83 20.689 12.527 20.764 13.32 20.764H14.036C14.1298 20.7644 14.2227 20.7463 14.3095 20.7108C14.3962 20.6753 14.4752 20.623 14.5418 20.557C14.6083 20.491 14.6613 20.4125 14.6975 20.326C14.7337 20.2395 14.7526 20.1468 14.753 20.053V18.632H15.563C16.709 18.632 17.392 17.367 16.757 16.422L14.753 13.442V12.237C14.753 7.136 10.581 3 5.433 3H5.434ZM12.602 14.013C12.6015 14.1536 12.5732 14.2927 12.5189 14.4224C12.4646 14.5521 12.3853 14.6698 12.2854 14.7688C12.1856 14.8678 12.0672 14.9461 11.9371 14.9994C11.8069 15.0526 11.6676 15.0797 11.527 15.079C11.3864 15.0797 11.2471 15.0526 11.1169 14.9994C10.9868 14.9461 10.8684 14.8678 10.7686 14.7688C10.6687 14.6698 10.5894 14.5521 10.5351 14.4224C10.4808 14.2927 10.4525 14.1536 10.452 14.013C10.4525 13.8724 10.4808 13.7333 10.5351 13.6036C10.5894 13.4739 10.6687 13.3562 10.7686 13.2572C10.8684 13.1582 10.9868 13.0799 11.1169 13.0266C11.2471 12.9734 11.3864 12.9463 11.527 12.947C11.6676 12.9463 11.8069 12.9734 11.9371 13.0266C12.0672 13.0799 12.1856 13.1582 12.2854 13.2572C12.3853 13.3562 12.4646 13.4739 12.5189 13.6036C12.5732 13.7333 12.6015 13.8724 12.602 14.013ZM19.495 23.084C19.8584 22.8711 20.1597 22.5667 20.3687 22.201C20.5777 21.8353 20.6871 21.4212 20.686 21C20.686 20.107 20.206 19.33 19.496 18.916L20.506 17.189C21.1703 17.5786 21.721 18.1355 22.1031 18.8041C22.4852 19.4728 22.6855 20.2299 22.684 21C22.6851 21.7702 22.4845 22.5272 22.102 23.1957C21.7195 23.8641 21.1685 24.4207 20.504 24.81L19.494 23.084H19.495ZM24.895 21C24.895 18.933 23.995 17.214 22.782 16.337L23.955 14.717C25.762 16.024 26.895 18.389 26.895 21C26.895 23.61 25.762 25.976 23.955 27.284L22.782 25.664C23.995 24.786 24.895 23.067 24.895 21Z" fill="#EABF4E"/>
<path fill-rule="evenodd" clip-rule="evenodd" d="M26.115 28.217C27.841 26.848 29.105 24.181 29.105 21C29.105 17.819 27.841 15.152 26.115 13.784L27.358 12.217C29.66 14.042 31.105 17.345 31.105 21C31.105 24.655 29.66 27.958 27.358 29.783L26.115 28.217Z" fill="#EABF4E"/>
</svg>
