<svg width="20" height="20" viewBox="0 0 20 20" fill="none" xmlns="http://www.w3.org/2000/svg">
<g clip-path="url(#clip0_6147_30810)">
<path d="M9.375 13.75C10.2038 13.75 10.9987 13.4208 11.5847 12.8347C12.1708 12.2487 12.5 11.4538 12.5 10.625V3.125C12.5 2.2962 12.1708 1.50134 11.5847 0.915291C10.9987 0.32924 10.2038 0 9.375 0C8.5462 0 7.75134 0.32924 7.16529 0.915291C6.57924 1.50134 6.25 2.2962 6.25 3.125V10.625C6.25 11.4538 6.57924 12.2487 7.16529 12.8347C7.75134 13.4208 8.5462 13.75 9.375 13.75ZM13.75 8.75V10.625C13.75 11.7853 13.2891 12.8981 12.4686 13.7186C11.6481 14.5391 10.5353 15 9.375 15C8.21468 15 7.10188 14.5391 6.28141 13.7186C5.46094 12.8981 5 11.7853 5 10.625V8.75H3.75V10.625C3.75004 12.0086 4.26002 13.3436 5.18243 14.3749C6.10484 15.4061 7.37497 16.0613 8.75 16.215V18.75H6.25V20H12.5V18.75H10V16.215C11.375 16.0613 12.6452 15.4061 13.5676 14.3749C14.49 13.3436 15 12.0086 15 10.625V8.75H13.75Z" fill="black"/>
</g>
<defs>
<clipPath id="clip0_6147_30810">
<rect width="20" height="20" fill="white"/>
</clipPath>
</defs>
</svg>
