<svg width="20" height="20" viewBox="0 0 20 20" fill="none" xmlns="http://www.w3.org/2000/svg">
<g clip-path="url(#clip0_2736_23555)">
<circle cx="10" cy="10" r="9.72222" stroke="#EABF4E" stroke-width="0.555556"/>
<g clip-path="url(#clip1_2736_23555)">
<path d="M13.9507 7.56976H6.04949C5.77676 7.56976 5.55566 7.79086 5.55566 8.06359V13.7031C5.55566 13.9758 5.77676 14.1969 6.04949 14.1969H13.9507C14.2235 14.1969 14.4446 13.9758 14.4446 13.7031V8.06359C14.4446 7.79086 14.2235 7.56976 13.9507 7.56976Z" fill="#EABF4E"/>
<path d="M8.79509 6.65618H11.1753V7.2389H11.8716V6.12779C11.8717 6.07493 11.851 6.02417 11.8141 5.98634C11.7772 5.9485 11.7269 5.92661 11.6741 5.92532C10.5392 5.76236 9.38681 5.76236 8.25188 5.92532C8.20124 5.92911 8.154 5.95226 8.11998 5.98996C8.08595 6.02766 8.06776 6.07702 8.06917 6.12779V7.2389H8.80003V6.65618H8.79509Z" fill="#EABF4E"/>
</g>
</g>
<defs>
<clipPath id="clip0_2736_23555">
<rect width="20" height="20" fill="white"/>
</clipPath>
<clipPath id="clip1_2736_23555">
<rect width="8.88889" height="8.39382" fill="white" transform="translate(5.55566 5.8031)"/>
</clipPath>
</defs>
</svg>
