<svg width="24" height="25" viewBox="0 0 24 25" fill="none" xmlns="http://www.w3.org/2000/svg">
<circle cx="12" cy="12.6667" r="10" fill="#151513"/>
<path d="M13.4333 18.6667C13.3444 18.6667 13.2583 18.6501 13.175 18.6167C13.0917 18.5834 13.0167 18.5334 12.95 18.4667L8.93333 14.2834C8.85556 14.2056 8.79167 14.1001 8.74167 13.9667C8.69167 13.8334 8.66667 13.7112 8.66667 13.6001C8.66667 13.3445 8.75833 13.1251 8.94167 12.9417C9.125 12.7584 9.34444 12.6667 9.6 12.6667H11C11.5889 12.6667 12.0972 12.4751 12.525 12.0917C12.9528 11.7084 13.2111 11.2334 13.3 10.6667H8.66667C8.47778 10.6667 8.31944 10.6029 8.19167 10.4751C8.06389 10.3473 8 10.189 8 10.0001C8 9.81119 8.06389 9.65286 8.19167 9.52508C8.31944 9.3973 8.47778 9.33341 8.66667 9.33341H13.1C12.9111 8.94453 12.6306 8.62508 12.2583 8.37508C11.8861 8.12508 11.4667 8.00008 11 8.00008H8.66667C8.47778 8.00008 8.31944 7.93619 8.19167 7.80841C8.06389 7.68064 8 7.5223 8 7.33341C8 7.14453 8.06389 6.98619 8.19167 6.85841C8.31944 6.73064 8.47778 6.66675 8.66667 6.66675H15.3333C15.5222 6.66675 15.6806 6.73064 15.8083 6.85841C15.9361 6.98619 16 7.14453 16 7.33341C16 7.5223 15.9361 7.68064 15.8083 7.80841C15.6806 7.93619 15.5222 8.00008 15.3333 8.00008H13.8333C13.9889 8.18897 14.1278 8.39453 14.25 8.61675C14.3722 8.83897 14.4667 9.07786 14.5333 9.33341H15.3333C15.5222 9.33341 15.6806 9.3973 15.8083 9.52508C15.9361 9.65286 16 9.81119 16 10.0001C16 10.189 15.9361 10.3473 15.8083 10.4751C15.6806 10.6029 15.5222 10.6667 15.3333 10.6667H14.65C14.5611 11.6112 14.1722 12.4029 13.4833 13.0417C12.7944 13.6806 11.9667 14.0001 11 14.0001H10.5167L13.9167 17.5334C14.1167 17.7445 14.1583 17.9862 14.0417 18.2584C13.925 18.5306 13.7222 18.6667 13.4333 18.6667Z" fill="#EABF4E"/>
</svg>
