<svg width="20" height="20" viewBox="0 0 20 20" fill="none" xmlns="http://www.w3.org/2000/svg">
<g clip-path="url(#clip0_2736_23560)">
<circle cx="10" cy="10" r="9.75" stroke="#EABF4E" stroke-width="0.5"/>
<g clip-path="url(#clip1_2736_23560)">
<path fill-rule="evenodd" clip-rule="evenodd" d="M14.3492 9.87162L10.3479 5.90618C10.3157 5.87333 10.2772 5.84724 10.2348 5.82942C10.1924 5.81161 10.1469 5.80243 10.1009 5.80243C10.0549 5.80243 10.0093 5.81161 9.9669 5.82942C9.92449 5.84724 9.88606 5.87333 9.85387 5.90618L5.66476 9.8568C5.61359 9.90483 5.57825 9.9673 5.56344 10.0359C5.54864 10.1045 5.55507 10.176 5.58187 10.2408C5.60868 10.3057 5.6546 10.3608 5.71353 10.399C5.77245 10.4371 5.8416 10.4564 5.91176 10.4543H6.62806V13.9901C6.62935 14.0417 6.65074 14.0906 6.68765 14.1266C6.72457 14.1626 6.7741 14.1827 6.82566 14.1827H9.01407C9.06563 14.1827 9.11516 14.1626 9.15208 14.1266C9.18899 14.0906 9.21038 14.0417 9.21167 13.9901V12.2222C9.22743 12.0228 9.31779 11.8367 9.46475 11.7009C9.6117 11.5652 9.80444 11.4898 10.0045 11.4898C10.2046 11.4898 10.3974 11.5652 10.5443 11.7009C10.6913 11.8367 10.7816 12.0228 10.7974 12.2222V14.0296C10.8044 14.0759 10.8276 14.1182 10.8629 14.1489C10.8982 14.1797 10.9433 14.1969 10.9901 14.1975H13.1785C13.23 14.1976 13.2796 14.1774 13.3165 14.1414C13.3534 14.1055 13.3748 14.0565 13.3761 14.0049V10.4691H14.1022C14.1703 10.4666 14.2362 10.4445 14.2921 10.4056C14.348 10.3667 14.3916 10.3126 14.4176 10.2496C14.4436 10.1867 14.451 10.1176 14.4389 10.0506C14.4268 9.98359 14.3957 9.92147 14.3492 9.87162Z" fill="#EABF4E"/>
</g>
</g>
<defs>
<clipPath id="clip0_2736_23560">
<rect width="20" height="20" fill="white"/>
</clipPath>
<clipPath id="clip1_2736_23560">
<rect width="8.88889" height="8.39511" fill="white" transform="translate(5.55566 5.80243)"/>
</clipPath>
</defs>
</svg>
