<svg width="172" height="173" viewBox="0 0 172 173" fill="none" xmlns="http://www.w3.org/2000/svg">
<rect x="0.282227" y="0.605957" width="171.436" height="171.436" rx="85.7178" fill="#151513"/>
<g clip-path="url(#clip0_3310_27217)">
<path d="M107.838 108.108L102.134 126.953L102.454 127.05L108.158 108.205L107.838 108.108Z" fill="white"/>
<path d="M108.157 108.112L107.84 108.22L114.27 127.065L114.587 126.957L108.157 108.112Z" fill="white"/>
<path d="M108.168 108.164H107.833V127.008H108.168V108.164Z" fill="white"/>
<path d="M115.574 126.674C115.574 129.236 112.346 131.314 108.363 131.314C104.38 131.314 101.152 129.236 101.152 126.674H115.574Z" fill="white"/>
<path opacity="0.11" d="M101.16 126.925C101.145 126.801 101.152 126.801 101.152 126.674H115.574C115.514 128.158 114.841 128.774 114.33 129.281L101.16 126.929V126.925Z" fill="white"/>
<path d="M108.003 108.333C107.57 108.333 107.221 107.984 107.221 107.551C107.221 107.119 107.57 106.77 108.003 106.77C108.435 106.77 108.784 107.119 108.784 107.551C108.784 107.984 108.435 108.333 108.003 108.333ZM108.003 107.104C107.755 107.104 107.555 107.303 107.555 107.551C107.555 107.8 107.755 107.999 108.003 107.999C108.251 107.999 108.45 107.8 108.45 107.551C108.45 107.303 108.251 107.104 108.003 107.104Z" fill="white"/>
<path d="M112.673 105.015C112.606 104.861 112.444 104.62 112.279 104.643C112.162 104.658 112.072 104.756 112.023 104.861C111.974 104.966 111.952 105.083 111.907 105.192C111.824 105.402 111.655 105.582 111.452 105.68C111.437 105.688 111.422 105.695 111.407 105.703C110.043 105.939 105.894 106.537 98.8979 104.643C97.9209 104.38 96.6283 104.027 94.5992 103.674C93.2277 103.433 90.3832 103.005 86.7383 102.971C86.34 102.967 86.0131 102.971 85.7952 102.971C85.7952 103.591 85.7952 104.211 85.7952 104.835C88.0159 104.842 91.3639 104.974 95.4221 105.612C97.1092 105.879 97.9923 106.026 99.1195 106.285C105.921 107.86 111.501 106.807 111.501 106.807C111.651 106.789 111.914 106.732 112.166 106.544C112.647 106.184 112.884 105.488 112.677 105.019L112.673 105.015Z" fill="white"/>
<path d="M63.7888 108.121L63.4688 108.218L69.1729 127.064L69.4929 126.967L63.7888 108.121Z" fill="white"/>
<path d="M63.4725 108.107L57.0426 126.951L57.3591 127.059L63.789 108.215L63.4725 108.107Z" fill="white"/>
<path d="M63.7984 108.164H63.464V127.008H63.7984V108.164Z" fill="white"/>
<path d="M56.0577 126.674C56.0577 129.236 59.2855 131.314 63.2685 131.314C67.2516 131.314 70.4793 129.236 70.4793 126.674H56.0577Z" fill="white"/>
<path opacity="0.11" d="M70.4718 126.925C70.4868 126.801 70.4793 126.801 70.4793 126.674H56.0577C56.1179 128.158 56.7905 128.774 57.3015 129.281L70.4718 126.929V126.925Z" fill="white"/>
<path d="M63.6332 108.333C64.0654 108.333 64.4149 107.984 64.4149 107.551C64.4149 107.119 64.0654 106.77 63.6332 106.77C63.201 106.77 62.8514 107.119 62.8514 107.551C62.8514 107.984 63.201 108.333 63.6332 108.333ZM63.6332 107.104C63.8812 107.104 64.0804 107.303 64.0804 107.551C64.0804 107.8 63.8812 107.999 63.6332 107.999C63.3851 107.999 63.1859 107.8 63.1859 107.551C63.1859 107.303 63.3851 107.104 63.6332 107.104Z" fill="white"/>
<path d="M58.9585 105.015C59.0111 104.827 59.1577 104.617 59.3531 104.643C59.4696 104.658 59.5597 104.756 59.6086 104.861C59.6574 104.966 59.68 105.083 59.7251 105.192C59.8077 105.402 59.9768 105.582 60.1797 105.68C60.1948 105.688 60.2098 105.695 60.2248 105.703C61.5888 105.939 65.7372 106.537 72.7338 104.643C73.7108 104.38 75.0034 104.027 77.0325 103.674C78.404 103.433 81.2485 103.005 84.8933 102.971C85.2916 102.967 85.6186 102.971 85.8365 102.971C85.8215 103.591 85.8064 104.211 85.7914 104.835C82.7778 104.771 78.7948 104.951 74.1391 105.932C73.2486 106.12 73.2524 106.116 72.5159 106.285C65.7147 107.86 60.1346 106.807 60.1346 106.807C60.1346 106.807 59.6649 106.683 59.4696 106.544C59.4019 106.496 59.3418 106.439 59.2854 106.379C58.9548 106.022 58.8308 105.488 58.9623 105.019L58.9585 105.015Z" fill="white"/>
</g>
<path d="M38.4894 80.8425C39.0343 81.2521 39.5115 81.5903 39.9624 81.9585C43.968 85.2201 48.5146 86.3324 53.5723 85.3629C54.042 85.2727 54.5005 85.0848 54.9438 84.8932C55.3158 84.7316 55.7442 84.5325 55.7141 84.0402C55.6841 83.5593 55.2783 83.3639 54.8687 83.2624C53.7865 82.9956 52.6968 82.7439 51.6071 82.4996C47.9698 81.6805 44.3475 80.8425 40.9957 79.1103C35.8366 76.4499 32.4698 72.3692 30.978 66.7516C30.8127 66.1316 30.745 65.5078 30.8202 64.8691C30.9179 64.0499 31.335 63.832 32.0452 64.2415C33.0522 64.824 33.8601 65.6619 34.7431 66.4022C39.7707 70.6294 45.5198 73.1019 52.1031 73.5265C52.5578 73.5566 53.3356 73.891 53.422 73.2109C53.4897 72.6848 52.678 72.76 52.2459 72.6285C46.2751 70.791 40.4809 68.544 35.4608 64.7225C29.4599 60.1608 26.2698 54.1975 26.8071 46.4945C26.886 45.3372 27.0401 44.1911 27.4872 43.1127C28.25 41.2902 29.6366 40.8581 31.2486 42.0117C32.9282 43.2104 34.2358 44.8036 35.5547 46.3705C39.4889 51.0449 43.4569 55.6855 48.3643 59.4093C54.384 63.9785 61.0649 67.1499 68.3997 68.9348C70.1357 69.3556 71.883 69.7502 73.6416 70.0658C74.5734 70.2311 74.7087 70.6031 74.3968 71.4335C73.1719 74.7026 72.7736 78.0807 73.2094 81.5452C73.5063 83.9012 74.8628 85.5132 76.6213 85.7161C78.3085 85.9115 80.0708 84.57 80.7471 82.2667C81.4197 79.9858 81.7993 77.6185 82.4155 75.3189C83.4488 71.4411 84.8354 70.5956 88.8184 71.3584C89.7991 71.5463 90.746 71.922 91.7005 72.2377C92.0161 72.3429 92.3994 72.4744 92.4745 72.8239C92.73 73.9849 93.6807 74.2367 94.6013 74.5486C95.289 74.7816 95.9165 75.1085 96.1194 75.8938C96.1983 76.1944 96.157 76.4988 95.8827 76.7017C95.6121 76.9008 95.4017 76.7167 95.1875 76.5589C93.7333 75.4654 92.1965 76.123 90.6897 76.3823C90.3778 76.4349 90.2275 76.7768 90.2313 77.0887C90.2613 79.5236 90.3741 81.9585 91.9297 84.0064C92.824 85.1825 93.9475 86.058 95.5633 85.6522C97.1677 85.2464 98.1259 84.1229 98.4453 82.556C99.2119 78.8059 98.7159 75.1498 97.4796 71.5613C97.04 70.2837 97.0663 70.2687 98.4566 70.0357C107.306 68.5477 115.445 65.3275 122.712 60.0218C127.349 56.6362 131.174 52.4127 134.86 48.0539C136.232 46.4344 137.565 44.781 139.091 43.3006C139.463 42.9361 139.843 42.5716 140.256 42.2597C142.232 40.7679 143.897 41.3429 144.551 43.7214C145.265 46.3254 145.167 48.9557 144.776 51.5935C143.983 56.9518 141.03 60.995 136.934 64.3017C131.824 68.4275 125.816 70.7159 119.638 72.6435C119.533 72.6773 119.413 72.6811 119.315 72.7337C118.984 72.9065 118.327 72.79 118.424 73.3424C118.496 73.7445 119.063 73.6167 119.416 73.5942C125.556 73.2447 131.027 71.1367 135.841 67.3228C136.949 66.4435 138.035 65.5342 139.147 64.6624C139.542 64.3543 139.944 63.8357 140.511 64.1777C141.079 64.5196 140.977 65.1546 140.883 65.7032C140.094 70.3589 137.783 74.0902 134.071 76.9948C129.757 80.3728 124.617 81.594 119.416 82.6687C118.616 82.834 117.808 82.9919 117.019 83.2023C116.557 83.3263 116.008 83.4954 115.986 84.0778C115.967 84.6602 116.512 84.8744 116.951 85.0322C118.913 85.7349 120.946 85.889 123.009 85.6823C126.529 85.3253 129.596 83.92 132.279 81.6316C132.534 81.4137 132.797 80.8876 133.165 81.2183C133.466 81.4851 133.105 81.9134 132.94 82.2253C128.825 89.9359 121.119 95.0387 111.8 94.2345C109.312 94.0204 106.832 93.7122 104.345 93.5882C99.2945 93.3365 95.9428 95.437 93.9588 100.081C93.5717 100.991 93.0945 101.22 92.1777 101.092C87.8753 100.487 83.5616 100.461 79.2591 101.126C78.4963 101.242 78.1056 100.957 77.7974 100.269C75.4865 95.1138 72.3076 93.2162 66.6788 93.5619C63.8906 93.7348 61.1326 94.2646 58.3294 94.2684C49.2699 94.2759 43.0248 89.733 38.681 82.1201C38.5082 81.8157 38.264 81.4888 38.4819 80.8576L38.4894 80.8425Z" fill="#EABF4E"/>
<path d="M85.9063 124.344C85.4478 125.272 85.0758 126.159 84.5986 126.982C83.7269 128.485 82.3478 129.323 80.6907 129.725C80.3375 129.811 79.9242 129.924 79.6724 129.53C79.4432 129.169 79.7476 128.902 79.943 128.643C80.2323 128.256 80.5292 127.872 80.841 127.5C83.1294 124.75 83.6968 121.597 83.0355 118.159C82.9941 117.941 82.9378 117.719 82.8589 117.513C82.7574 117.246 82.6935 116.863 82.314 116.923C82.0059 116.972 82.0397 117.321 82.0021 117.573C81.8105 118.824 81.7015 120.094 81.4122 121.323C80.7734 124.021 79.2591 126.039 76.5762 127.023C76.2643 127.136 75.9261 127.181 75.5955 127.23C75.3061 127.271 74.9755 127.354 74.7988 127.016C74.6485 126.726 74.8702 126.516 75.0393 126.332C75.4376 125.888 75.8547 125.464 76.2681 125.039C78.6165 122.608 79.8941 119.711 80.0444 116.329C80.0595 115.998 80.0219 115.66 79.9768 115.326C79.943 115.063 79.8566 114.792 79.5296 114.77C79.2779 114.751 79.1163 114.935 79.0186 115.142C78.7669 115.679 78.5076 116.22 78.2934 116.776C77.6696 118.426 76.8317 119.959 75.7871 121.376C74.8064 122.706 73.4687 123.33 71.8228 123.232C71.3043 123.202 70.7369 123.066 70.5227 122.514C70.2898 121.917 70.7482 121.518 71.139 121.195C72.9238 119.73 74.7763 118.336 76.0877 116.389C77.8049 113.853 79.1013 111.159 79.0599 107.999C79.0487 107.236 79.353 106.845 80.1309 106.725C84.0312 106.124 87.9241 106.225 91.8207 106.725C92.4106 106.8 92.7789 107.108 92.7864 107.747C92.8427 113.346 95.7962 117.325 99.9859 120.613C100.219 120.797 100.459 120.974 100.677 121.18C101.049 121.537 101.56 121.879 101.354 122.48C101.124 123.149 100.474 123.239 99.8694 123.247C98.4115 123.266 97.1978 122.755 96.2509 121.594C94.962 120.012 94.1128 118.197 93.3688 116.322C93.2711 116.081 93.1809 115.833 93.0569 115.604C92.869 115.254 92.7601 114.698 92.2829 114.766C91.6892 114.849 91.8207 115.465 91.8169 115.871C91.8019 118.888 92.7413 121.582 94.6577 123.916C95.319 124.72 96.048 125.468 96.7469 126.245C96.9423 126.463 97.2278 126.681 97.0775 127.008C96.8934 127.399 96.5101 127.279 96.1832 127.237C93.5642 126.892 91.0466 124.355 90.4191 121.368C90.1673 120.169 90.0471 118.941 89.8517 117.727C89.8029 117.426 89.9381 116.957 89.4534 116.945C89.0927 116.938 89.0589 117.351 88.98 117.622C88.1533 120.485 88.5178 123.232 89.8893 125.84C90.4078 126.828 91.0729 127.733 91.8395 128.556C92.0875 128.823 92.4219 129.127 92.2002 129.53C91.9484 129.984 91.4712 129.841 91.0917 129.744C88.8334 129.161 87.2966 127.775 86.5 125.573C86.3647 125.197 86.3835 124.754 85.8987 124.352L85.9063 124.344Z" fill="#EABF4E"/>
<defs>
<clipPath id="clip0_3310_27217">
<rect width="118.363" height="89.9887" fill="white" transform="translate(26.8877 41.3296)"/>
</clipPath>
</defs>
</svg>
