<svg width="97" height="29" viewBox="0 0 97 29" fill="none" xmlns="http://www.w3.org/2000/svg">
<path d="M96.3571 25.3477C96.3571 25.7094 96.2858 26.0676 96.1473 26.4018C96.0087 26.7359 95.8056 27.0395 95.5496 27.2952C95.2937 27.5508 94.9898 27.7535 94.6554 27.8917C94.321 28.0299 93.9626 28.1008 93.6008 28.1004H3.40003C2.66895 28.1012 1.96749 27.8116 1.44993 27.2954C0.932375 26.7792 0.641089 26.0786 0.640137 25.3477V3.3959C0.641089 2.66468 0.93226 1.96372 1.44972 1.44694C1.96717 0.930163 2.66862 0.6398 3.40003 0.63961H93.6001C93.9621 0.63961 94.3206 0.710909 94.6551 0.849434C94.9895 0.987959 95.2934 1.191 95.5493 1.44695C95.8053 1.70291 96.0083 2.00676 96.1468 2.34117C96.2853 2.67557 96.3565 3.03397 96.3564 3.3959L96.3571 25.3477Z" fill="white"/>
<path d="M93.6005 28.7409H3.39972C2.49911 28.7407 1.63536 28.3833 0.997996 27.7472C0.360631 27.1111 0.00171361 26.2482 0 25.3478L0 3.39671C0.00133232 2.49589 0.360013 1.63239 0.997357 0.995615C1.6347 0.358843 2.49867 0.000806099 3.39972 4.57764e-05L93.5998 4.57764e-05C94.5007 0.00118548 95.3645 0.359345 96.0017 0.996034C96.639 1.63272 96.9978 2.49601 96.9995 3.39671V25.3478C97.0009 27.2194 95.4733 28.7409 93.6005 28.7409Z" fill="#A6A6A6"/>
<path d="M96.3571 25.3477C96.3571 25.7094 96.2858 26.0676 96.1473 26.4018C96.0087 26.7359 95.8056 27.0395 95.5496 27.2952C95.2937 27.5508 94.9898 27.7535 94.6554 27.8917C94.321 28.0299 93.9626 28.1008 93.6008 28.1004H3.40003C2.66895 28.1012 1.96749 27.8116 1.44993 27.2954C0.932375 26.7792 0.641089 26.0786 0.640137 25.3477V3.3959C0.641089 2.66468 0.93226 1.96372 1.44972 1.44694C1.96717 0.930163 2.66862 0.6398 3.40003 0.63961H93.6001C93.9621 0.63961 94.3206 0.710909 94.6551 0.849434C94.9895 0.987959 95.2934 1.191 95.5493 1.44695C95.8053 1.70291 96.0083 2.00676 96.1468 2.34117C96.2853 2.67557 96.3565 3.03397 96.3564 3.3959L96.3571 25.3477Z" fill="black"/>
<path d="M21.6594 14.2191C21.6385 11.9027 23.5566 10.7757 23.6443 10.7232C22.558 9.1399 20.8743 8.92357 20.2827 8.90632C18.8686 8.75754 17.4969 9.75225 16.7765 9.75225C16.0418 9.75225 14.9325 8.92069 13.737 8.94513C12.1985 8.96885 10.7593 9.85934 9.9699 11.2422C8.34086 14.0617 9.55581 18.2051 11.1166 20.4842C11.8973 21.601 12.8096 22.8466 14.0037 22.8027C15.1719 22.7553 15.6083 22.0589 17.0181 22.0589C18.4149 22.0589 18.8247 22.8027 20.0425 22.7747C21.2963 22.7553 22.0857 21.6535 22.8391 20.5273C23.7413 19.2487 24.1037 17.988 24.118 17.9234C24.0893 17.9133 21.6838 16.9948 21.6594 14.2191ZM19.3589 7.40707C19.9872 6.62151 20.4171 5.55278 20.2977 4.46823C19.3883 4.50848 18.251 5.09711 17.5961 5.86542C17.0166 6.54245 16.499 7.65215 16.6328 8.69573C17.6543 8.77192 18.7032 8.18041 19.3589 7.40707Z" fill="white"/>
<path d="M93.6004 -4.57764e-05H45.2861L64.21 28.7408H93.6004C94.5012 28.74 95.365 28.3822 96.0023 27.7457C96.6396 27.1093 96.9984 26.2461 97.0001 25.3456V3.39662C96.9986 2.49586 96.6399 1.63246 96.0026 0.995733C95.3653 0.359003 94.5014 0.00090431 93.6004 -4.57764e-05Z" fill="url(#paint0_linear_6484_3321)"/>
<path d="M38.5808 22.6425H36.9482L36.0539 19.833H32.9453L32.0934 22.6425H30.5039L33.5844 13.0778H35.4867L38.5808 22.6425ZM35.7843 18.6543L34.9755 16.1567C34.89 15.9016 34.7289 15.3007 34.4931 14.3549H34.4644C34.3695 14.7617 34.2178 15.3626 34.01 16.1567L33.2149 18.6543H35.7843ZM46.4874 19.1092C46.4874 20.2822 46.1689 21.2093 45.5313 21.89C44.9604 22.4958 44.2509 22.7984 43.4047 22.7984C42.491 22.7984 41.8339 22.4728 41.4349 21.8202V25.439H39.9022V18.0125C39.9022 17.2758 39.8828 16.5204 39.8454 15.7456H41.1934L41.2789 16.8388H41.3077C41.8188 16.0152 42.5945 15.6033 43.6355 15.6033C44.4493 15.6033 45.1287 15.9246 45.6722 16.5678C46.2149 17.2125 46.4874 18.0592 46.4874 19.1092ZM44.9259 19.1653C44.9259 18.494 44.775 17.9406 44.4716 17.5043C44.1402 17.0508 43.6952 16.8237 43.1373 16.8237C42.7591 16.8237 42.4155 16.9502 42.1085 17.1996C41.8008 17.4512 41.5995 17.7796 41.5054 18.1864C41.4633 18.3385 41.4394 18.4951 41.4342 18.6529V19.8035C41.4342 20.3045 41.588 20.7278 41.8957 21.0742C42.2034 21.4192 42.6031 21.5924 43.0949 21.5924C43.6722 21.5924 44.1215 21.3689 44.4428 20.9254C44.7649 20.4806 44.9259 19.8941 44.9259 19.1653ZM54.422 19.1092C54.422 20.2822 54.1035 21.2093 53.4659 21.89C52.8943 22.4958 52.1855 22.7984 51.3386 22.7984C50.4249 22.7984 49.7678 22.4728 49.3688 21.8202V25.439H47.8361V18.0125C47.8361 17.2758 47.8167 16.5204 47.7793 15.7456H49.1272L49.2128 16.8388H49.2416C49.752 16.0152 50.5277 15.6033 51.5694 15.6033C52.3825 15.6033 53.0618 15.9246 53.6068 16.5678C54.1488 17.2125 54.422 18.0592 54.422 19.1092ZM52.8598 19.1653C52.8598 18.494 52.7081 17.9406 52.4047 17.5043C52.0733 17.0508 51.6298 16.8237 51.0719 16.8237C50.6937 16.8237 50.3501 16.9502 50.0417 17.1996C49.734 17.4512 49.5334 17.7796 49.4392 18.1864C49.3925 18.3761 49.3674 18.5307 49.3674 18.6529V19.8035C49.3674 20.3045 49.5219 20.7278 49.8282 21.0742C50.1359 21.4185 50.5356 21.5924 51.0288 21.5924C51.6068 21.5924 52.0561 21.3689 52.3767 20.9254C52.6988 20.4806 52.8598 19.8941 52.8598 19.1653ZM63.2933 19.9595C63.2933 20.7738 63.0087 21.4357 62.4429 21.9467C61.8203 22.5045 60.9511 22.784 59.8368 22.784C58.8074 22.784 57.982 22.5857 57.3595 22.1882L57.7139 20.9111C58.3861 21.3092 59.1244 21.5076 59.9281 21.5076C60.5061 21.5076 60.9555 21.3768 61.2761 21.1173C61.5974 20.8572 61.7599 20.5093 61.7599 20.0752C61.7599 19.6864 61.6255 19.3608 61.3616 19.0956C61.0964 18.8311 60.6578 18.5846 60.0417 18.3582C58.3667 17.7336 57.5284 16.8201 57.5284 15.6184C57.5284 14.8336 57.8246 14.191 58.4155 13.6887C59.0065 13.187 59.7901 12.9362 60.7649 12.9362C61.6355 12.9362 62.3609 13.0878 62.9368 13.3904L62.5522 14.6395C62.0101 14.3463 61.3983 14.1997 60.7139 14.1997C60.1733 14.1997 59.7491 14.3326 59.4457 14.5971C59.1905 14.8336 59.0611 15.1218 59.0611 15.4639C59.0611 15.8412 59.2085 16.1546 59.5018 16.4004C59.7563 16.6268 60.2207 16.8733 60.8922 17.1378C61.7161 17.4698 62.3214 17.8565 62.7089 18.3007C63.0992 18.7448 63.2933 19.299 63.2933 19.9595ZM68.3739 16.8956H66.6844V20.2441C66.6844 21.0958 66.9821 21.5205 67.5788 21.5205C67.8527 21.5205 68.0798 21.4975 68.2596 21.4494L68.302 22.613C68 22.7258 67.6025 22.7826 67.11 22.7826C66.5047 22.7826 66.0317 22.5979 65.6902 22.2285C65.3501 21.8591 65.179 21.2402 65.179 20.3692V16.8927H64.1726V15.7428H65.179V14.48L66.6844 14.0257V15.7428H68.3739V16.8956ZM75.9814 19.1373C75.9814 20.1974 75.678 21.0677 75.0727 21.7484C74.4393 22.4491 73.5967 22.7984 72.5464 22.7984C71.5328 22.7984 70.7269 22.4628 70.1259 21.7922C69.5248 21.1202 69.2243 20.2736 69.2243 19.2523C69.2243 18.1835 69.5349 17.3081 70.1539 16.6275C70.7743 15.9462 71.6097 15.6055 72.66 15.6055C73.6722 15.6055 74.4853 15.9418 75.1007 16.6131C75.6888 17.2643 75.9814 18.1052 75.9814 19.1373ZM74.3926 19.1725C74.3926 18.5407 74.256 17.9988 73.9821 17.5453C73.6607 16.9976 73.2006 16.7238 72.6047 16.7238C71.9907 16.7238 71.5198 16.9976 71.1992 17.5453C70.9246 17.9988 70.788 18.5501 70.788 19.2012C70.788 19.8337 70.9246 20.3771 71.1992 20.8291C71.5306 21.3768 71.9929 21.6506 72.5917 21.6506C73.1776 21.6506 73.637 21.371 73.9691 20.8155C74.251 20.3512 74.3926 19.8057 74.3926 19.1725ZM80.9656 17.0932C80.8062 17.0645 80.6444 17.0503 80.4825 17.0508C79.9433 17.0508 79.5263 17.2535 79.233 17.6617C78.9785 18.0211 78.8505 18.4753 78.8505 19.0237V22.6425H77.3178V17.9176C77.3192 17.1936 77.3043 16.4697 77.2732 15.7464H78.6083L78.6643 17.0659H78.7068C78.8692 16.6124 79.1237 16.2466 79.4731 15.9728C79.7929 15.7335 80.1815 15.6039 80.5809 15.6033C80.7226 15.6033 80.8505 15.6134 80.9641 15.6314L80.9656 17.0932ZM87.8204 18.8677C87.8242 19.1007 87.8055 19.3334 87.7643 19.5627H83.1661C83.1834 20.2441 83.4063 20.7659 83.8333 21.1252C84.2208 21.4458 84.7219 21.6068 85.3373 21.6068C86.0181 21.6068 86.6392 21.499 87.1978 21.2812L87.4379 22.3442C86.7851 22.6288 86.0145 22.7704 85.1252 22.7704C84.0554 22.7704 83.2157 22.4556 82.6047 21.8274C81.995 21.1986 81.6895 20.3533 81.6895 19.2947C81.6895 18.2554 81.9735 17.3893 82.5421 16.6987C83.1374 15.9613 83.9418 15.5925 84.9541 15.5925C85.9483 15.5925 86.701 15.9613 87.2122 16.6987C87.6169 17.283 87.8204 18.0074 87.8204 18.8677ZM86.3588 18.4703C86.3696 18.0153 86.269 17.6236 86.0612 17.2923C85.7959 16.8654 85.3876 16.6527 84.8405 16.6527C84.3394 16.6527 83.9311 16.8604 83.6205 17.2772C83.3653 17.6086 83.2136 18.0067 83.1669 18.4689L86.3588 18.4703Z" fill="white"/>
<path d="M32.502 9.69619C32.0757 9.69619 31.7069 9.67535 31.3999 9.64013V5.0159C31.8292 4.94959 32.2631 4.91691 32.6975 4.91815C34.4553 4.91815 35.2648 5.78277 35.2648 7.19218C35.2648 8.81792 34.3086 9.69619 32.502 9.69619ZM32.7594 5.5111C32.5221 5.5111 32.3201 5.52547 32.1526 5.55997V9.07522C32.2432 9.0896 32.4172 9.09606 32.6616 9.09606C33.8133 9.09606 34.4689 8.44059 34.4689 7.21302C34.4689 6.11841 33.8758 5.5111 32.7594 5.5111ZM37.7874 9.73141C36.7968 9.73141 36.1548 8.99185 36.1548 7.9878C36.1548 6.94135 36.8104 6.19532 37.8435 6.19532C38.8198 6.19532 39.4761 6.89966 39.4761 7.93246C39.4761 8.99185 38.7996 9.73141 37.7874 9.73141ZM37.8162 6.74585C37.2719 6.74585 36.9233 7.25471 36.9233 7.96624C36.9233 8.66411 37.2791 9.17297 37.809 9.17297C38.3388 9.17297 38.6947 8.6289 38.6947 7.95186C38.6947 7.26189 38.346 6.74585 37.8162 6.74585ZM45.1253 6.26503L44.0649 9.65451H43.374L42.9348 8.18257C42.8256 7.82253 42.7346 7.45719 42.6623 7.08796H42.648C42.5926 7.45739 42.4876 7.82753 42.3762 8.18257L41.9089 9.65451H41.2109L40.213 6.26503H40.9873L41.3712 7.8764C41.4618 8.26019 41.538 8.62243 41.6012 8.96454H41.6156C41.671 8.67921 41.7615 8.32272 41.8945 7.88359L42.3762 6.26575H42.9902L43.451 7.84909C43.5624 8.23288 43.653 8.60949 43.7234 8.96526H43.7436C43.7925 8.61668 43.8694 8.24654 43.9736 7.84909L44.3856 6.26575L45.1253 6.26503ZM49.029 9.65451H48.2756V7.70822C48.2756 7.10881 48.0455 6.80838 47.5919 6.80838C47.1454 6.80838 46.8385 7.19218 46.8385 7.6385V9.65451H46.0851V7.23386C46.0851 6.93416 46.0779 6.61289 46.057 6.26431H46.7198L46.7551 6.78754H46.7759C46.9787 6.42531 47.3899 6.19532 47.8507 6.19532C48.5624 6.19532 49.0297 6.73939 49.0297 7.62485L49.029 9.65451ZM51.1066 9.65451H50.3525V4.70972H51.1066V9.65451ZM53.8536 9.73141C52.8636 9.73141 52.2209 8.99185 52.2209 7.9878C52.2209 6.94135 52.8766 6.19532 53.9089 6.19532C54.8859 6.19532 55.5416 6.89966 55.5416 7.93246C55.5423 8.99185 54.8651 9.73141 53.8536 9.73141ZM53.8816 6.74585C53.3374 6.74585 52.9887 7.25471 52.9887 7.96624C52.9887 8.66411 53.3453 9.17297 53.8737 9.17297C54.4043 9.17297 54.7594 8.6289 54.7594 7.95186C54.7601 7.26189 54.4122 6.74585 53.8816 6.74585ZM58.5121 9.65451L58.4575 9.26424H58.4373C58.2073 9.57832 57.8716 9.73141 57.446 9.73141C56.8385 9.73141 56.4071 9.30593 56.4071 8.73383C56.4071 7.89724 57.1325 7.46457 58.3885 7.46457V7.40204C58.3885 6.95572 58.1519 6.7322 57.6846 6.7322C57.3504 6.7322 57.057 6.81629 56.799 6.98375L56.6458 6.48855C56.9593 6.29306 57.3504 6.19532 57.8097 6.19532C58.6954 6.19532 59.1426 6.66248 59.1426 7.59754V8.84595C59.1426 9.18806 59.1577 9.45327 59.1915 9.65523L58.5121 9.65451ZM58.4086 7.96624C57.5718 7.96624 57.1519 8.16892 57.1519 8.64974C57.1519 9.0055 57.3683 9.17944 57.6688 9.17944C58.052 9.17944 58.4086 8.88692 58.4086 8.48947V7.96624ZM62.8011 9.65451L62.7659 9.11044H62.745C62.5287 9.52154 62.1649 9.73141 61.6566 9.73141C60.8392 9.73141 60.2339 9.01269 60.2339 8.00146C60.2339 6.94135 60.8615 6.1946 61.7184 6.1946C62.1721 6.1946 62.4934 6.34768 62.6746 6.6553H62.6897V4.70972H63.4438V8.74102C63.4438 9.06875 63.4517 9.37564 63.4719 9.65451H62.8011ZM62.6897 7.66006C62.6897 7.18571 62.3755 6.78107 61.896 6.78107C61.3374 6.78107 60.9959 7.27627 60.9959 7.97343C60.9959 8.65693 61.3504 9.12481 61.8809 9.12481C62.3547 9.12481 62.6897 8.71299 62.6897 8.22498V7.66006ZM68.2253 9.73141C67.2354 9.73141 66.5934 8.99185 66.5934 7.9878C66.5934 6.94135 67.249 6.19532 68.2814 6.19532C69.2584 6.19532 69.914 6.89966 69.914 7.93246C69.9147 8.99185 69.2382 9.73141 68.2253 9.73141ZM68.2533 6.74585C67.7098 6.74585 67.3612 7.25471 67.3612 7.96624C67.3612 8.66411 67.717 9.17297 68.2461 9.17297C68.7767 9.17297 69.1318 8.6289 69.1318 7.95186C69.1333 7.26189 68.7846 6.74585 68.2533 6.74585ZM73.9658 9.65451H73.2116V7.70822C73.2116 7.10881 72.9816 6.80838 72.528 6.80838C72.0815 6.80838 71.7753 7.19218 71.7753 7.6385V9.65451H71.0211V7.23386C71.0211 6.93416 71.0139 6.61289 70.9931 6.26431H71.6559L71.6912 6.78754H71.712C71.914 6.42531 72.3259 6.1946 72.7861 6.1946C73.4978 6.1946 73.9658 6.73867 73.9658 7.62413V9.65451ZM79.0348 6.82994H78.2059V8.47581C78.2059 8.89482 78.3511 9.10397 78.6444 9.10397C78.7774 9.10397 78.8889 9.0896 78.9787 9.06875L78.9996 9.64085C78.8536 9.69691 78.6581 9.72494 78.4151 9.72494C77.8213 9.72494 77.4661 9.39721 77.4661 8.53906V6.82994H76.9715V6.26503H77.4661V5.64406L78.2059 5.42054V6.26431H79.0348V6.82994ZM83.0233 9.65451H82.2706V7.72259C82.2706 7.11599 82.0413 6.8091 81.5869 6.8091C81.1966 6.8091 80.8328 7.07431 80.8328 7.61119V9.65451H80.0801V4.70972H80.8328V6.74585H80.8479C81.0851 6.37643 81.4288 6.1946 81.8673 6.1946C82.5848 6.1946 83.0233 6.75232 83.0233 7.6385V9.65451ZM87.1096 8.14089H84.8486C84.863 8.7827 85.2879 9.14494 85.9169 9.14494C86.2512 9.14494 86.5589 9.08888 86.8307 8.98466L86.9478 9.50789C86.6272 9.64732 86.2498 9.71704 85.8105 9.71704C84.7501 9.71704 84.1225 9.04719 84.1225 8.00864C84.1225 6.96938 84.7652 6.18813 85.7257 6.18813C86.592 6.18813 87.1355 6.82994 87.1355 7.7995C87.1403 7.91391 87.1317 8.02851 87.1096 8.14089ZM86.4187 7.604C86.4187 7.08078 86.1549 6.71136 85.6732 6.71136C85.2404 6.71136 84.8982 7.08796 84.8493 7.604H86.4187Z" fill="white"/>
<defs>
<linearGradient id="paint0_linear_6484_3321" x1="71.1423" y1="28.8171" x2="71.1423" y2="-74.8362" gradientUnits="userSpaceOnUse">
<stop stop-color="#1A1A1A" stop-opacity="0.1"/>
<stop offset="0.123" stop-color="#212121" stop-opacity="0.151"/>
<stop offset="0.308" stop-color="#353535" stop-opacity="0.227"/>
<stop offset="0.532" stop-color="#575757" stop-opacity="0.318"/>
<stop offset="0.783" stop-color="#858585" stop-opacity="0.421"/>
<stop offset="1" stop-color="#B3B3B3" stop-opacity="0.51"/>
</linearGradient>
</defs>
</svg>
