<svg width="24" height="25" viewBox="0 0 24 25" fill="none" xmlns="http://www.w3.org/2000/svg">
<mask id="mask0_3422_12028" style="mask-type:alpha" maskUnits="userSpaceOnUse" x="0" y="0" width="24" height="25">
<rect y="0.894745" width="24" height="24" fill="#D9D9D9"/>
</mask>
<g mask="url(#mask0_3422_12028)">
<path d="M5.29902 21.9289C4.80402 21.9289 4.38012 21.7528 4.02732 21.4006C3.67512 21.0478 3.49902 20.6239 3.49902 20.1289V7.52892C3.49902 7.03392 3.67512 6.61032 4.02732 6.25812C4.38012 5.90532 4.80402 5.72892 5.29902 5.72892H6.19902V3.92892H7.99902V5.72892H15.199V3.92892H16.999V5.72892H17.899C18.394 5.72892 18.8179 5.90532 19.1707 6.25812C19.5229 6.61032 19.699 7.03392 19.699 7.52892V20.1289C19.699 20.6239 19.5229 21.0478 19.1707 21.4006C18.8179 21.7528 18.394 21.9289 17.899 21.9289H5.29902ZM5.29902 20.1289H17.899V11.1289H5.29902V20.1289ZM5.29902 9.32892H17.899V7.52892H5.29902V9.32892ZM11.599 14.7289C11.344 14.7289 11.1304 14.6425 10.9582 14.4697C10.7854 14.2975 10.699 14.0839 10.699 13.8289C10.699 13.5739 10.7854 13.36 10.9582 13.1872C11.1304 13.015 11.344 12.9289 11.599 12.9289C11.854 12.9289 12.0679 13.015 12.2407 13.1872C12.4129 13.36 12.499 13.5739 12.499 13.8289C12.499 14.0839 12.4129 14.2975 12.2407 14.4697C12.0679 14.6425 11.854 14.7289 11.599 14.7289ZM7.99902 14.7289C7.74402 14.7289 7.53012 14.6425 7.35732 14.4697C7.18512 14.2975 7.09902 14.0839 7.09902 13.8289C7.09902 13.5739 7.18512 13.36 7.35732 13.1872C7.53012 13.015 7.74402 12.9289 7.99902 12.9289C8.25402 12.9289 8.46792 13.015 8.64072 13.1872C8.81292 13.36 8.89902 13.5739 8.89902 13.8289C8.89902 14.0839 8.81292 14.2975 8.64072 14.4697C8.46792 14.6425 8.25402 14.7289 7.99902 14.7289ZM15.199 14.7289C14.944 14.7289 14.7304 14.6425 14.5582 14.4697C14.3854 14.2975 14.299 14.0839 14.299 13.8289C14.299 13.5739 14.3854 13.36 14.5582 13.1872C14.7304 13.015 14.944 12.9289 15.199 12.9289C15.454 12.9289 15.6676 13.015 15.8398 13.1872C16.0126 13.36 16.099 13.5739 16.099 13.8289C16.099 14.0839 16.0126 14.2975 15.8398 14.4697C15.6676 14.6425 15.454 14.7289 15.199 14.7289ZM11.599 18.3289C11.344 18.3289 11.1304 18.2425 10.9582 18.0697C10.7854 17.8975 10.699 17.6839 10.699 17.4289C10.699 17.1739 10.7854 16.9603 10.9582 16.7881C11.1304 16.6153 11.344 16.5289 11.599 16.5289C11.854 16.5289 12.0679 16.6153 12.2407 16.7881C12.4129 16.9603 12.499 17.1739 12.499 17.4289C12.499 17.6839 12.4129 17.8975 12.2407 18.0697C12.0679 18.2425 11.854 18.3289 11.599 18.3289ZM7.99902 18.3289C7.74402 18.3289 7.53012 18.2425 7.35732 18.0697C7.18512 17.8975 7.09902 17.6839 7.09902 17.4289C7.09902 17.1739 7.18512 16.9603 7.35732 16.7881C7.53012 16.6153 7.74402 16.5289 7.99902 16.5289C8.25402 16.5289 8.46792 16.6153 8.64072 16.7881C8.81292 16.9603 8.89902 17.1739 8.89902 17.4289C8.89902 17.6839 8.81292 17.8975 8.64072 18.0697C8.46792 18.2425 8.25402 18.3289 7.99902 18.3289ZM15.199 18.3289C14.944 18.3289 14.7304 18.2425 14.5582 18.0697C14.3854 17.8975 14.299 17.6839 14.299 17.4289C14.299 17.1739 14.3854 16.9603 14.5582 16.7881C14.7304 16.6153 14.944 16.5289 15.199 16.5289C15.454 16.5289 15.6676 16.6153 15.8398 16.7881C16.0126 16.9603 16.099 17.1739 16.099 17.4289C16.099 17.6839 16.0126 17.8975 15.8398 18.0697C15.6676 18.2425 15.454 18.3289 15.199 18.3289Z" fill="#EABF4E"/>
</g>
</svg>
