<svg width="27" height="27" viewBox="0 0 27 27" fill="none" xmlns="http://www.w3.org/2000/svg">
<rect x="0.204056" y="0.204102" width="26.3673" height="26.3673" rx="13.1837" fill="#FFA000"/>
<g clip-path="url(#clip0_3574_28337)">
<path d="M12.9865 5.24116V7.2721C12.9865 7.32981 13.0095 7.38515 13.0503 7.42596C13.0911 7.46677 13.1464 7.4897 13.2041 7.4897C13.2619 7.4897 13.3172 7.46677 13.358 7.42596C13.3988 7.38515 13.4217 7.32981 13.4217 7.2721V5.24116C13.4217 5.18345 13.3988 5.1281 13.358 5.08729C13.3172 5.04649 13.2619 5.02356 13.2041 5.02356C13.1464 5.02356 13.0911 5.04649 13.0503 5.08729C13.0095 5.1281 12.9865 5.18345 12.9865 5.24116Z" fill="#212121"/>
<path d="M5.60337 13.739C5.60616 12.6857 5.89173 11.6525 6.43025 10.7472C5.84614 10.78 5.2919 11.0161 4.86353 11.4145C4.25425 12.021 4.22813 12.814 4.18955 13.9626C4.14907 15.1401 4.12311 15.9153 4.68292 16.5249C5.22808 17.1504 5.97822 17.1892 6.69456 17.1487C5.98867 16.1515 5.60761 14.9608 5.60337 13.739Z" fill="white"/>
<path d="M22.2154 13.9624C22.1768 12.8137 22.1501 12.0208 21.5414 11.4143C21.113 11.0158 20.5588 10.7797 19.9747 10.7469C20.5576 11.7241 20.8429 12.8501 20.7958 13.9869C20.7488 15.1237 20.3713 16.2222 19.7097 17.1479C20.4274 17.1886 21.1748 17.1505 21.7213 16.5241C22.2811 15.9154 22.2551 15.1402 22.2154 13.9624Z" fill="white"/>
<path d="M20.8009 13.7391C20.8009 10.0937 17.3987 7.13855 13.2021 7.13855C9.00547 7.13855 5.60336 10.0937 5.60336 13.7391C5.60336 16.6277 7.74034 19.0812 10.7152 19.9761C10.5063 20.3968 10.1733 20.7806 9.73138 21.3007C9.6216 21.43 9.55591 21.591 9.54384 21.7603C9.53178 21.9295 9.57397 22.0982 9.6643 22.2418C9.75462 22.3854 9.88838 22.4965 10.0461 22.5589C10.2039 22.6213 10.3774 22.6318 10.5416 22.5889C12.0417 22.1924 13.3997 21.3811 14.4598 20.2481C18.0576 19.7272 20.8009 17.0122 20.8009 13.7391Z" fill="#FFDA69"/>
<path d="M13.2021 5.95738C13.6027 5.95738 13.9274 5.63264 13.9274 5.23205C13.9274 4.83146 13.6027 4.50671 13.2021 4.50671C12.8015 4.50671 12.4768 4.83146 12.4768 5.23205C12.4768 5.63264 12.8015 5.95738 13.2021 5.95738Z" fill="#313030"/>
<path d="M13.2021 8.22656C9.62216 8.22656 7.07478 11.3353 7.45152 14.8622C7.51823 15.5077 7.82134 16.1057 8.3025 16.5411C8.78366 16.9765 9.40887 17.2186 10.0578 17.2207C11.63 17.2164 11.63 16.3432 13.2021 16.3432C14.7742 16.3432 14.7742 17.2164 16.3464 17.2207C16.9954 17.2186 17.6206 16.9765 18.1017 16.5411C18.5829 16.1057 18.886 15.5077 18.9527 14.8622C19.3295 11.3353 16.7821 8.22656 13.2021 8.22656Z" fill="#313030"/>
<path d="M14.5402 13.2676C14.416 13.1484 14.2502 13.0822 14.0781 13.0832C13.9059 13.0842 13.7409 13.1522 13.618 13.2729C13.5694 13.3354 13.5071 13.386 13.436 13.4208C13.3649 13.4557 13.2867 13.4738 13.2075 13.4739C13.1283 13.474 13.0501 13.456 12.9789 13.4214C12.9077 13.3867 12.8453 13.3363 12.7965 13.2739C12.7363 13.2128 12.6647 13.1642 12.5857 13.1308C12.5067 13.0975 12.422 13.08 12.3362 13.0794C12.2505 13.0787 12.1655 13.095 12.086 13.1273C12.0066 13.1595 11.9343 13.2071 11.8732 13.2673C11.8122 13.3275 11.7636 13.3991 11.7302 13.4781C11.6968 13.557 11.6793 13.6418 11.6787 13.7276C11.6781 13.8133 11.6944 13.8983 11.7266 13.9777C11.7589 14.0572 11.8064 14.1295 11.8666 14.1906C12.0374 14.3756 12.2446 14.5232 12.4752 14.6242C12.7059 14.7252 12.9549 14.7774 13.2067 14.7774C13.4585 14.7774 13.7075 14.7252 13.9381 14.6242C14.1688 14.5232 14.376 14.3756 14.5467 14.1906C14.6672 14.0667 14.734 13.9005 14.7328 13.7278C14.7315 13.555 14.6624 13.3898 14.5402 13.2676Z" fill="white"/>
<path d="M16.321 11.2254C16.323 11.1379 16.3076 11.0509 16.2758 10.9695C16.244 10.888 16.1964 10.8136 16.1357 10.7506C16.0751 10.6876 16.0025 10.6372 15.9223 10.6024C15.842 10.5675 15.7557 10.5489 15.6682 10.5476C15.4953 10.5482 15.3296 10.6172 15.2073 10.7395C15.085 10.8618 15.0161 11.0275 15.0154 11.2004V12.2159C15.0156 12.389 15.0845 12.5549 15.2069 12.6773C15.3292 12.7996 15.4952 12.8685 15.6682 12.8687C15.7558 12.8676 15.8422 12.8491 15.9225 12.8144C16.0028 12.7796 16.0755 12.7293 16.1362 12.6662C16.1969 12.6032 16.2445 12.5287 16.2762 12.4472C16.308 12.3656 16.3232 12.2786 16.321 12.1911C16.321 11.9497 16.321 11.4668 16.321 11.2254Z" fill="white"/>
<path d="M10.736 10.5476C10.6485 10.5489 10.5622 10.5675 10.4819 10.6023C10.4016 10.6371 10.3291 10.6875 10.2684 10.7505C10.2077 10.8135 10.1601 10.8879 10.1283 10.9694C10.0965 11.0509 10.0812 11.1379 10.0832 11.2254C10.0839 11.4668 10.0839 11.9497 10.0832 12.1911C10.0812 12.2785 10.0966 12.3655 10.1284 12.447C10.1602 12.5284 10.2078 12.6028 10.2685 12.6658C10.3292 12.7288 10.4017 12.7791 10.482 12.814C10.5622 12.8488 10.6485 12.8674 10.736 12.8687C10.9089 12.8681 11.0746 12.7991 11.1969 12.6768C11.3192 12.5545 11.3882 12.3888 11.3888 12.2159V11.2004C11.3882 11.0275 11.3192 10.8618 11.1969 10.7395C11.0746 10.6172 10.9089 10.5482 10.736 10.5476Z" fill="white"/>
<path d="M13.2021 18.5988C13.5626 18.5988 13.8549 18.3065 13.8549 17.946C13.8549 17.5855 13.5626 17.2932 13.2021 17.2932C12.8416 17.2932 12.5493 17.5855 12.5493 17.946C12.5493 18.3065 12.8416 18.5988 13.2021 18.5988Z" fill="#313030"/>
</g>
<defs>
<clipPath id="clip0_3574_28337">
<rect width="18.5686" height="18.5686" fill="white" transform="translate(3.91783 4.28906)"/>
</clipPath>
</defs>
</svg>
