<svg width="17" height="17" viewBox="0 0 17 17" fill="none" xmlns="http://www.w3.org/2000/svg">
<mask id="mask0_921_11658" style="mask-type:alpha" maskUnits="userSpaceOnUse" x="0" y="0" width="17" height="17">
<rect x="0.378906" y="0.5" width="16" height="16" fill="#D9D9D9"/>
</mask>
<g mask="url(#mask0_921_11658)">
<path d="M7.44525 9.69998L5.99525 8.24998C5.87302 8.12776 5.72302 8.06665 5.54525 8.06665C5.36747 8.06665 5.21191 8.13331 5.07858 8.26665C4.95636 8.38887 4.89525 8.54442 4.89525 8.73331C4.89525 8.9222 4.95636 9.07776 5.07858 9.19998L6.97858 11.1C7.1008 11.2222 7.25636 11.2833 7.44525 11.2833C7.63414 11.2833 7.78969 11.2222 7.91191 11.1L11.6952 7.31665C11.8175 7.19442 11.8786 7.04442 11.8786 6.86665C11.8786 6.68887 11.8119 6.53331 11.6786 6.39998C11.5564 6.27776 11.4008 6.21665 11.2119 6.21665C11.023 6.21665 10.8675 6.27776 10.7452 6.39998L7.44525 9.69998ZM8.37858 15.1666C7.45636 15.1666 6.58969 14.9915 5.77858 14.6413C4.96747 14.2915 4.26191 13.8166 3.66191 13.2166C3.06191 12.6166 2.58703 11.9111 2.23725 11.1C1.88703 10.2889 1.71191 9.4222 1.71191 8.49998C1.71191 7.57776 1.88703 6.71109 2.23725 5.89998C2.58703 5.08887 3.06191 4.38331 3.66191 3.78331C4.26191 3.18331 4.96747 2.7082 5.77858 2.35798C6.58969 2.0082 7.45636 1.83331 8.37858 1.83331C9.3008 1.83331 10.1675 2.0082 10.9786 2.35798C11.7897 2.7082 12.4952 3.18331 13.0952 3.78331C13.6952 4.38331 14.1701 5.08887 14.5199 5.89998C14.8701 6.71109 15.0452 7.57776 15.0452 8.49998C15.0452 9.4222 14.8701 10.2889 14.5199 11.1C14.1701 11.9111 13.6952 12.6166 13.0952 13.2166C12.4952 13.8166 11.7897 14.2915 10.9786 14.6413C10.1675 14.9915 9.3008 15.1666 8.37858 15.1666Z" fill="#52A652"/>
</g>
</svg>
