<svg width="24" height="24" viewBox="0 0 24 24" fill="none" xmlns="http://www.w3.org/2000/svg">
<mask id="mask0_3275_26757" style="mask-type:alpha" maskUnits="userSpaceOnUse" x="0" y="0" width="24" height="24">
<rect width="24" height="24" fill="#D9D9D9"/>
</mask>
<g mask="url(#mask0_3275_26757)">
<path d="M5 22C4.45 22 3.97917 21.8042 3.5875 21.4125C3.19583 21.0208 3 20.55 3 20V6C3 5.45 3.19583 4.97917 3.5875 4.5875C3.97917 4.19583 4.45 4 5 4H6V3C6 2.71667 6.09583 2.47917 6.2875 2.2875C6.47917 2.09583 6.71667 2 7 2C7.28333 2 7.52083 2.09583 7.7125 2.2875C7.90417 2.47917 8 2.71667 8 3V4H16V3C16 2.71667 16.0958 2.47917 16.2875 2.2875C16.4792 2.09583 16.7167 2 17 2C17.2833 2 17.5208 2.09583 17.7125 2.2875C17.9042 2.47917 18 2.71667 18 3V4H19C19.55 4 20.0208 4.19583 20.4125 4.5875C20.8042 4.97917 21 5.45 21 6V20C21 20.55 20.8042 21.0208 20.4125 21.4125C20.0208 21.8042 19.55 22 19 22H5ZM5 20H19V10H5V20Z" fill="#8F8F90"/>
<rect x="4.97583" y="9.84717" width="14.0483" height="10.2738" fill="#8F8F90"/>
<rect x="6" y="7" width="12" height="12" rx="1" fill="white"/>
<path d="M9.23894 14.9554L7.67116 13.3911C7.45842 13.1788 7.34974 12.9181 7.34512 12.609C7.34049 12.2998 7.44455 12.0391 7.65729 11.8268L8.05964 11.4254L11.2229 14.5539L10.8206 14.9554C10.6079 15.1676 10.3442 15.2738 10.0298 15.2738C9.71529 15.2738 9.45168 15.1676 9.23894 14.9554ZM13.5538 12.2283L10.4182 9.07202L10.8206 8.67057C11.0333 8.4583 11.2946 8.35448 11.6045 8.3591C11.9143 8.36371 12.1756 8.47215 12.3884 8.68441L13.9561 10.2487C14.1689 10.461 14.2753 10.724 14.2753 11.0378C14.2753 11.3515 14.1689 11.6146 13.9561 11.8268L13.5538 12.2283ZM15.7182 17.4887L8.86434 10.6501L9.64129 9.87493L16.509 16.7273C16.6107 16.8288 16.6593 16.9557 16.6547 17.108C16.65 17.2603 16.5969 17.3872 16.4951 17.4887C16.3934 17.5902 16.2639 17.641 16.1066 17.641C15.9494 17.641 15.8199 17.5902 15.7182 17.4887Z" fill="#8F8F90"/>
</g>
</svg>
