<svg width="24" height="24" viewBox="0 0 24 24" fill="none" xmlns="http://www.w3.org/2000/svg">
<mask id="mask0_3275_26868" style="mask-type:alpha" maskUnits="userSpaceOnUse" x="0" y="0" width="24" height="24">
<path d="M0 0H24V24H0V0Z" fill="#D9D9D9"/>
</mask>
<g mask="url(#mask0_3275_26868)">
<path d="M7.55556 17.5556H13.1111C13.4259 17.5556 13.69 17.4489 13.9033 17.2356C14.1159 17.023 14.2222 16.7593 14.2222 16.4444C14.2222 16.1296 14.1159 15.8656 13.9033 15.6522C13.69 15.4396 13.4259 15.3333 13.1111 15.3333H7.55556C7.24074 15.3333 6.97667 15.4396 6.76333 15.6522C6.55074 15.8656 6.44444 16.1296 6.44444 16.4444C6.44444 16.7593 6.55074 17.023 6.76333 17.2356C6.97667 17.4489 7.24074 17.5556 7.55556 17.5556ZM7.55556 13.1111H16.4444C16.7593 13.1111 17.023 13.0044 17.2356 12.7911C17.4489 12.5785 17.5556 12.3148 17.5556 12C17.5556 11.6852 17.4489 11.4211 17.2356 11.2078C17.023 10.9952 16.7593 10.8889 16.4444 10.8889H7.55556C7.24074 10.8889 6.97667 10.9952 6.76333 11.2078C6.55074 11.4211 6.44444 11.6852 6.44444 12C6.44444 12.3148 6.55074 12.5785 6.76333 12.7911C6.97667 13.0044 7.24074 13.1111 7.55556 13.1111ZM7.55556 8.66667H16.4444C16.7593 8.66667 17.023 8.56 17.2356 8.34667C17.4489 8.13407 17.5556 7.87037 17.5556 7.55556C17.5556 7.24074 17.4489 6.97667 17.2356 6.76333C17.023 6.55074 16.7593 6.44444 16.4444 6.44444H7.55556C7.24074 6.44444 6.97667 6.55074 6.76333 6.76333C6.55074 6.97667 6.44444 7.24074 6.44444 7.55556C6.44444 7.87037 6.55074 8.13407 6.76333 8.34667C6.97667 8.56 7.24074 8.66667 7.55556 8.66667ZM4.22222 22C3.61111 22 3.08778 21.7826 2.65222 21.3478C2.21741 20.9122 2 20.3889 2 19.7778V4.22222C2 3.61111 2.21741 3.08778 2.65222 2.65222C3.08778 2.21741 3.61111 2 4.22222 2H19.7778C20.3889 2 20.9122 2.21741 21.3478 2.65222C21.7826 3.08778 22 3.61111 22 4.22222V19.7778C22 20.3889 21.7826 20.9122 21.3478 21.3478C20.9122 21.7826 20.3889 22 19.7778 22H4.22222Z" fill="#8F8F90"/>
<path d="M7.61188 7.56238L16.4082 7.56238" stroke="white" stroke-width="2.4" stroke-linecap="round"/>
<path d="M7.61188 12L16.4082 12" stroke="white" stroke-width="2.4" stroke-linecap="round"/>
<path d="M7.61188 16.4478L13.125 16.4478" stroke="white" stroke-width="2.4" stroke-linecap="round"/>
</g>
</svg>
