<svg width="48" height="48" viewBox="0 0 48 48" fill="none" xmlns="http://www.w3.org/2000/svg">
<path fill-rule="evenodd" clip-rule="evenodd" d="M39 8H9C8.73478 8 8.48043 8.10536 8.29289 8.29289C8.10536 8.48043 8 8.73478 8 9V39C8 39.2652 8.10536 39.5196 8.29289 39.7071C8.48043 39.8946 8.73478 40 9 40H39C39.2652 40 39.5196 39.8946 39.7071 39.7071C39.8946 39.5196 40 39.2652 40 39V9C40 8.73478 39.8946 8.48043 39.7071 8.29289C39.5196 8.10536 39.2652 8 39 8ZM9 6C8.20435 6 7.44129 6.31607 6.87868 6.87868C6.31607 7.44129 6 8.20435 6 9V39C6 39.7956 6.31607 40.5587 6.87868 41.1213C7.44129 41.6839 8.20435 42 9 42H39C39.7956 42 40.5587 41.6839 41.1213 41.1213C41.6839 40.5587 42 39.7956 42 39V9C42 8.20435 41.6839 7.44129 41.1213 6.87868C40.5587 6.31607 39.7956 6 39 6H9Z" fill="#8F8F90"/>
<path fill-rule="evenodd" clip-rule="evenodd" d="M11.434 10C11.173 10 10.914 10.01 10.658 10.032C10.4795 10.0458 10.3126 10.1263 10.1907 10.2575C10.0688 10.3887 10.0007 10.5609 10 10.74V38.29C10 38.682 10.32 39 10.717 39H12.867C13.0562 39.0008 13.238 38.9265 13.3724 38.7934C13.5068 38.6602 13.5829 38.4792 13.584 38.29V33.104L16.521 34.351C16.896 34.511 17.353 34.679 17.83 34.741C18.315 34.804 18.866 34.763 19.378 34.453C19.7969 34.2012 20.1436 33.8455 20.3845 33.4202C20.6254 32.995 20.7524 32.5147 20.753 32.026V29.895C20.7519 29.7058 20.6758 29.5248 20.5414 29.3916C20.407 29.2585 20.2252 29.1842 20.036 29.185L17.83 28.474C17.83 27.689 18.527 27.764 19.32 27.764H20.036C20.1298 27.7644 20.2227 27.7463 20.3095 27.7108C20.3962 27.6753 20.4752 27.623 20.5418 27.557C20.6083 27.491 20.6613 27.4125 20.6975 27.326C20.7337 27.2395 20.7526 27.1468 20.753 27.053V25.632H21.563C22.709 25.632 23.392 24.367 22.757 23.422L20.753 20.442V19.237C20.753 14.136 16.581 10 11.433 10H11.434ZM18.602 21.013C18.6015 21.1536 18.5732 21.2927 18.5189 21.4224C18.4646 21.5521 18.3853 21.6698 18.2854 21.7688C18.1856 21.8678 18.0672 21.9461 17.9371 21.9994C17.8069 22.0526 17.6676 22.0797 17.527 22.079C17.3864 22.0797 17.2471 22.0526 17.1169 21.9994C16.9868 21.9461 16.8684 21.8678 16.7686 21.7688C16.6687 21.6698 16.5894 21.5521 16.5351 21.4224C16.4808 21.2927 16.4525 21.1536 16.452 21.013C16.4525 20.8724 16.4808 20.7333 16.5351 20.6036C16.5894 20.4739 16.6687 20.3562 16.7686 20.2572C16.8684 20.1582 16.9868 20.0799 17.1169 20.0266C17.2471 19.9734 17.3864 19.9463 17.527 19.947C17.6676 19.9463 17.8069 19.9734 17.9371 20.0266C18.0672 20.0799 18.1856 20.1582 18.2854 20.2572C18.3853 20.3562 18.4646 20.4739 18.5189 20.6036C18.5732 20.7333 18.6015 20.8724 18.602 21.013ZM25.495 30.084C25.8584 29.8711 26.1597 29.5667 26.3687 29.201C26.5777 28.8353 26.6871 28.4212 26.686 28C26.686 27.107 26.206 26.33 25.496 25.916L26.506 24.189C27.1703 24.5786 27.721 25.1355 28.1031 25.8041C28.4852 26.4728 28.6855 27.2299 28.684 28C28.6851 28.7702 28.4845 29.5272 28.102 30.1957C27.7195 30.8641 27.1685 31.4207 26.504 31.81L25.494 30.084H25.495ZM30.895 28C30.895 25.933 29.995 24.214 28.782 23.337L29.955 21.717C31.762 23.024 32.895 25.389 32.895 28C32.895 30.61 31.762 32.976 29.955 34.284L28.782 32.664C29.995 31.786 30.895 30.067 30.895 28Z" fill="#8F8F90"/>
<path fill-rule="evenodd" clip-rule="evenodd" d="M32.115 35.217C33.841 33.848 35.105 31.181 35.105 28C35.105 24.819 33.841 22.152 32.115 20.784L33.358 19.217C35.66 21.042 37.105 24.345 37.105 28C37.105 31.655 35.66 34.958 33.358 36.783L32.115 35.217Z" fill="#8F8F90"/>
</svg>
