<svg width="24" height="24" viewBox="0 0 24 24" fill="none" xmlns="http://www.w3.org/2000/svg">
<mask id="mask0_3233_25738" style="mask-type:alpha" maskUnits="userSpaceOnUse" x="0" y="0" width="24" height="24">
<rect width="24" height="24" fill="#D9D9D9"/>
</mask>
<g mask="url(#mask0_3233_25738)">
<path d="M4.45716 23C3.76573 23 3.17382 22.7538 2.68144 22.2614C2.18906 21.769 1.94287 21.1771 1.94287 20.4857V9.17143C1.94287 8.77333 2.03192 8.39619 2.21001 8.04C2.38811 7.68381 2.6343 7.39048 2.94859 7.16L10.4914 1.50286C10.7219 1.33524 10.9629 1.20952 11.2143 1.12571C11.4657 1.0419 11.7276 1 12 1C12.2724 1 12.5343 1.0419 12.7857 1.12571C13.0372 1.20952 13.2781 1.33524 13.5086 1.50286L21.0514 7.16C21.3657 7.39048 21.6119 7.68381 21.79 8.04C21.9681 8.39619 22.0572 8.77333 22.0572 9.17143V20.4857C22.0572 21.1771 21.811 21.769 21.3186 22.2614C20.8262 22.7538 20.2343 23 19.5429 23H14.5143V14.2H9.48573V23H4.45716Z" fill="#8F8F90"/>
<path d="M9 9.69995L15 9.69995" stroke="white" stroke-width="2.6" stroke-linecap="round"/>
</g>
</svg>
