<svg width="24" height="24" viewBox="0 0 24 24" fill="none" xmlns="http://www.w3.org/2000/svg">
<circle cx="12" cy="12" r="10" fill="#8F8F90"/>
<path d="M13.4333 18C13.3444 18 13.2583 17.9833 13.175 17.95C13.0917 17.9167 13.0167 17.8667 12.95 17.8L8.93333 13.6167C8.85556 13.5389 8.79167 13.4333 8.74167 13.3C8.69167 13.1667 8.66667 13.0444 8.66667 12.9333C8.66667 12.6778 8.75833 12.4583 8.94167 12.275C9.125 12.0917 9.34444 12 9.6 12H11C11.5889 12 12.0972 11.8083 12.525 11.425C12.9528 11.0417 13.2111 10.5667 13.3 10H8.66667C8.47778 10 8.31944 9.93611 8.19167 9.80833C8.06389 9.68056 8 9.52222 8 9.33333C8 9.14444 8.06389 8.98611 8.19167 8.85833C8.31944 8.73056 8.47778 8.66667 8.66667 8.66667H13.1C12.9111 8.27778 12.6306 7.95833 12.2583 7.70833C11.8861 7.45833 11.4667 7.33333 11 7.33333H8.66667C8.47778 7.33333 8.31944 7.26944 8.19167 7.14167C8.06389 7.01389 8 6.85556 8 6.66667C8 6.47778 8.06389 6.31944 8.19167 6.19167C8.31944 6.06389 8.47778 6 8.66667 6H15.3333C15.5222 6 15.6806 6.06389 15.8083 6.19167C15.9361 6.31944 16 6.47778 16 6.66667C16 6.85556 15.9361 7.01389 15.8083 7.14167C15.6806 7.26944 15.5222 7.33333 15.3333 7.33333H13.8333C13.9889 7.52222 14.1278 7.72778 14.25 7.95C14.3722 8.17222 14.4667 8.41111 14.5333 8.66667H15.3333C15.5222 8.66667 15.6806 8.73056 15.8083 8.85833C15.9361 8.98611 16 9.14444 16 9.33333C16 9.52222 15.9361 9.68056 15.8083 9.80833C15.6806 9.93611 15.5222 10 15.3333 10H14.65C14.5611 10.9444 14.1722 11.7361 13.4833 12.375C12.7944 13.0139 11.9667 13.3333 11 13.3333H10.5167L13.9167 16.8667C14.1167 17.0778 14.1583 17.3194 14.0417 17.5917C13.925 17.8639 13.7222 18 13.4333 18Z" fill="white"/>
</svg>
