<svg width="234" height="256" viewBox="0 0 234 256" fill="none" xmlns="http://www.w3.org/2000/svg">
<g clip-path="url(#clip0_6473_12415)">
<path d="M160 130.887L148.812 167.848L149.44 168.038L160.628 131.077L160 130.887Z" fill="white"/>
<path d="M160.624 130.895L160.004 131.107L172.615 168.067L173.235 167.855L160.624 130.895Z" fill="white"/>
<path d="M160.646 130.996H159.99V167.955H160.646V130.996Z" fill="white"/>
<path d="M175.172 167.299C175.172 172.325 168.841 176.401 161.03 176.401C153.218 176.401 146.887 172.325 146.887 167.299H175.172Z" fill="white"/>
<path opacity="0.11" d="M146.902 167.793C146.872 167.55 146.887 167.55 146.887 167.299H175.172C175.054 170.21 173.735 171.419 172.733 172.414L146.902 167.8V167.793Z" fill="white"/>
<path d="M160.322 131.328C159.475 131.328 158.789 130.643 158.789 129.795C158.789 128.948 159.475 128.262 160.322 128.262C161.17 128.262 161.855 128.948 161.855 129.795C161.855 130.643 161.17 131.328 160.322 131.328ZM160.322 128.918C159.836 128.918 159.445 129.309 159.445 129.795C159.445 130.281 159.836 130.672 160.322 130.672C160.809 130.672 161.199 130.281 161.199 129.795C161.199 129.309 160.809 128.918 160.322 128.918Z" fill="white"/>
<path d="M169.482 124.82C169.35 124.518 169.033 124.047 168.709 124.091C168.48 124.12 168.303 124.312 168.208 124.518C168.112 124.725 168.068 124.953 167.979 125.167C167.817 125.58 167.485 125.933 167.087 126.125C167.058 126.14 167.028 126.154 166.999 126.169C164.324 126.633 156.188 127.805 142.465 124.091C140.549 123.575 138.014 122.882 134.034 122.19C131.345 121.718 125.766 120.878 118.617 120.811C117.836 120.804 117.195 120.811 116.767 120.811C116.767 122.027 116.767 123.243 116.767 124.467C121.123 124.481 127.689 124.739 135.648 125.992C138.957 126.516 140.689 126.803 142.9 127.311C156.239 130.399 167.183 128.336 167.183 128.336C167.478 128.299 167.994 128.188 168.488 127.82C169.431 127.112 169.895 125.749 169.49 124.828L169.482 124.82Z" fill="white"/>
<path d="M73.6068 130.913L72.979 131.103L84.1663 168.064L84.7941 167.874L73.6068 130.913Z" fill="white"/>
<path d="M72.9864 130.884L60.3755 167.844L60.9962 168.056L73.6071 131.096L72.9864 130.884Z" fill="white"/>
<path d="M73.6254 130.996H72.9695V167.955H73.6254V130.996Z" fill="white"/>
<path d="M58.4438 167.299C58.4438 172.325 64.7744 176.401 72.5862 176.401C80.398 176.401 86.7286 172.325 86.7286 167.299H58.4438V167.299Z" fill="white"/>
<path opacity="0.11" d="M86.7138 167.793C86.7433 167.55 86.7286 167.55 86.7286 167.299H58.4438C58.5618 170.21 59.8809 171.419 60.8832 172.414L86.7138 167.8V167.793Z" fill="white"/>
<path d="M73.301 131.328C74.1485 131.328 74.8338 130.643 74.8338 129.795C74.8338 128.948 74.1485 128.262 73.301 128.262C72.4534 128.262 71.7681 128.948 71.7681 129.795C71.7681 130.643 72.4534 131.328 73.301 131.328ZM73.301 128.918C73.7874 128.918 74.1779 129.309 74.1779 129.795C74.1779 130.281 73.7874 130.672 73.301 130.672C72.8146 130.672 72.424 130.281 72.424 129.795C72.424 129.309 72.8146 128.918 73.301 128.918Z" fill="white"/>
<path d="M64.1332 124.82C64.2364 124.452 64.5238 124.039 64.907 124.091C65.1355 124.12 65.3124 124.312 65.4082 124.518C65.504 124.725 65.5482 124.953 65.6366 125.167C65.7987 125.58 66.1304 125.933 66.5283 126.125C66.5578 126.14 66.5873 126.154 66.6168 126.169C69.292 126.633 77.4281 127.805 91.1504 124.091C93.0665 123.575 95.6016 122.882 99.5812 122.19C102.271 121.718 107.85 120.878 114.999 120.811C115.78 120.804 116.421 120.811 116.848 120.811C116.819 122.027 116.789 123.243 116.76 124.467C110.849 124.341 103.038 124.695 93.9066 126.619C92.16 126.987 92.1674 126.98 90.7229 127.311C77.3838 130.399 66.4399 128.336 66.4399 128.336C66.4399 128.336 65.5187 128.093 65.1355 127.82C65.0028 127.724 64.8849 127.614 64.7744 127.496C64.1258 126.796 63.8826 125.749 64.1406 124.828L64.1332 124.82Z" fill="white"/>
<path d="M23.9873 77.4116C25.0559 78.2148 25.9919 78.8781 26.8762 79.6003C34.7323 85.9972 43.6496 88.1786 53.5691 86.2772C54.4903 86.1004 55.3894 85.7319 56.259 85.356C56.9886 85.0391 57.8288 84.6486 57.7698 83.6831C57.7109 82.7398 56.9149 82.3566 56.1116 82.1576C53.9892 81.6344 51.852 81.1406 49.7148 80.6616C42.581 79.055 35.4766 77.4116 28.9029 74.0141C18.7843 68.7964 12.1811 60.793 9.25539 49.7753C8.93112 48.5594 8.79847 47.336 8.94586 46.0832C9.13747 44.4766 9.9555 44.0491 11.3484 44.8524C13.3234 45.9947 14.9079 47.6381 16.6398 49.09C26.5004 57.3808 37.776 62.2301 50.6876 63.0628C51.5793 63.1218 53.1048 63.7777 53.2743 62.4438C53.407 61.412 51.8151 61.5594 50.9676 61.3015C39.2573 57.6977 27.8932 53.2907 18.0474 45.7957C6.27805 36.849 0.0212091 25.1533 1.07507 10.0455C1.22983 7.77568 1.53199 5.52794 2.40898 3.41285C3.90502 -0.161433 6.62442 -1.00894 9.786 1.25354C13.0802 3.60446 15.6449 6.72919 18.2316 9.80234C25.9477 18.9702 33.73 28.0717 43.3548 35.375C55.161 44.3365 68.2642 50.5565 82.6498 54.0571C86.0546 54.8825 89.4814 55.6563 92.9304 56.2754C94.7581 56.5996 95.0234 57.3292 94.4117 58.9579C92.0092 65.3695 91.2281 71.9949 92.0829 78.7897C92.6651 83.4105 95.3256 86.572 98.7746 86.97C102.084 87.3532 105.54 84.7222 106.866 80.2047C108.186 75.7313 108.93 71.0884 110.139 66.5782C112.165 58.9727 114.885 57.3145 122.696 58.8105C124.62 59.179 126.477 59.916 128.349 60.535C128.968 60.7414 129.72 60.9993 129.867 61.6847C130.368 63.9619 132.233 64.4557 134.038 65.0674C135.387 65.5243 136.618 66.1655 137.016 67.7057C137.17 68.2953 137.089 68.8922 136.551 69.2902C136.021 69.6808 135.608 69.3197 135.188 69.0101C132.336 66.8656 129.322 68.1553 126.367 68.6638C125.755 68.7669 125.46 69.4376 125.467 70.0493C125.526 74.8248 125.748 79.6003 128.799 83.6168C130.553 85.9235 132.756 87.6406 135.925 86.8447C139.072 86.0488 140.951 83.8453 141.578 80.7721C143.081 73.4172 142.108 66.2465 139.684 59.2085C138.821 56.7028 138.873 56.6733 141.6 56.2164C158.955 53.298 174.918 46.9822 189.171 36.5763C198.265 29.9362 205.767 21.6527 212.997 13.1039C215.687 9.92762 218.303 6.68498 221.295 3.78133C222.025 3.06648 222.769 2.35162 223.58 1.73994C227.456 -1.18582 230.721 -0.0582582 232.003 4.60673C233.403 9.7139 233.212 14.8727 232.445 20.0462C230.89 30.5553 225.098 38.485 217.065 44.9703C207.042 53.0622 195.258 57.5503 183.142 61.331C182.936 61.3973 182.7 61.4047 182.509 61.5078C181.86 61.8468 180.57 61.6184 180.762 62.7017C180.902 63.4903 182.015 63.2397 182.708 63.1955C194.75 62.5101 205.48 58.3757 214.92 50.8955C217.094 49.171 219.224 47.3876 221.406 45.6778C222.179 45.0735 222.968 44.0565 224.081 44.7271C225.194 45.3978 224.995 46.6432 224.81 47.7192C223.263 56.8502 218.73 64.1683 211.449 69.865C202.989 76.4903 192.907 78.8855 182.708 80.9932C181.138 81.3175 179.553 81.627 178.006 82.0397C177.099 82.2829 176.023 82.6145 175.979 83.7568C175.942 84.8991 177.011 85.3192 177.873 85.6287C181.72 87.0068 185.707 87.309 189.753 86.9037C196.658 86.2035 202.672 83.4473 207.934 78.9592C208.435 78.5317 208.951 77.5 209.673 78.1485C210.263 78.6718 209.555 79.5119 209.231 80.1236C201.161 95.2461 186.046 105.254 167.769 103.677C162.891 103.257 158.027 102.653 153.148 102.409C143.243 101.916 136.669 106.035 132.778 115.144C132.019 116.928 131.083 117.377 129.285 117.127C120.847 115.94 112.386 115.889 103.948 117.193C102.452 117.421 101.686 116.861 101.081 115.513C96.5489 105.402 90.3142 101.68 79.2745 102.358C73.8062 102.697 68.3969 103.736 62.8991 103.743C45.1309 103.758 32.8825 94.8482 24.3632 79.9172C24.0242 79.3203 23.5451 78.6791 23.9726 77.441L23.9873 77.4116Z" fill="#151513"/>
<path d="M116.985 162.73C116.086 164.55 115.356 166.29 114.42 167.904C112.71 170.851 110.006 172.495 106.756 173.283C106.063 173.453 105.252 173.674 104.759 172.9C104.309 172.193 104.906 171.669 105.289 171.161C105.857 170.402 106.439 169.65 107.051 168.921C111.539 163.526 112.652 157.343 111.354 150.6C111.273 150.172 111.163 149.737 111.008 149.332C110.809 148.809 110.684 148.057 109.939 148.175C109.335 148.271 109.402 148.956 109.328 149.45C108.952 151.904 108.738 154.395 108.171 156.805C106.918 162.096 103.948 166.054 98.686 167.985C98.0743 168.206 97.4111 168.294 96.7625 168.39C96.1951 168.471 95.5465 168.633 95.2002 167.97C94.9054 167.402 95.3402 166.99 95.6718 166.629C96.453 165.759 97.271 164.926 98.0817 164.093C102.688 159.325 105.193 153.643 105.488 147.011C105.518 146.362 105.444 145.699 105.356 145.043C105.289 144.527 105.12 143.996 104.479 143.952C103.985 143.915 103.668 144.276 103.476 144.682C102.983 145.736 102.474 146.797 102.054 147.888C100.831 151.123 99.1872 154.13 97.1384 156.908C95.2149 159.517 92.5913 160.74 89.3634 160.549C88.3464 160.49 87.2336 160.224 86.8135 159.141C86.3566 157.969 87.2557 157.188 88.0221 156.554C91.5227 153.68 95.156 150.946 97.728 147.129C101.096 142.154 103.638 136.87 103.557 130.672C103.535 129.176 104.132 128.41 105.658 128.174C113.307 126.995 120.942 127.194 128.585 128.174C129.742 128.321 130.464 128.925 130.479 130.178C130.589 141.159 136.382 148.964 144.599 155.412C145.056 155.773 145.528 156.119 145.955 156.525C146.685 157.225 147.687 157.896 147.282 159.075C146.832 160.387 145.557 160.563 144.371 160.578C141.511 160.615 139.131 159.613 137.274 157.335C134.746 154.233 133.08 150.673 131.621 146.996C131.429 146.524 131.253 146.038 131.009 145.588C130.641 144.903 130.427 143.812 129.491 143.945C128.327 144.107 128.585 145.316 128.577 146.111C128.548 152.029 130.39 157.313 134.149 161.89C135.446 163.467 136.876 164.934 138.246 166.459C138.63 166.887 139.19 167.314 138.895 167.955C138.534 168.722 137.782 168.486 137.141 168.405C132.004 167.727 127.067 162.752 125.836 156.893C125.342 154.542 125.106 152.133 124.723 149.752C124.627 149.163 124.893 148.241 123.942 148.219C123.234 148.204 123.168 149.015 123.013 149.546C121.392 155.161 122.107 160.549 124.797 165.663C125.814 167.601 127.118 169.378 128.622 170.991C129.108 171.515 129.764 172.112 129.329 172.9C128.835 173.792 127.899 173.512 127.155 173.32C122.726 172.178 119.712 169.459 118.149 165.14C117.884 164.403 117.921 163.533 116.97 162.745L116.985 162.73Z" fill="#151513"/>
</g>
<g clip-path="url(#clip1_6473_12415)">
<path d="M1.16162 201.967C1.16162 201.185 1.86066 200.482 2.63761 200.482H5.04642C5.82338 200.482 6.52241 201.185 6.52241 201.967V253.731C6.52241 254.513 5.82338 255.216 5.04642 255.216H2.63761C1.86066 255.216 1.16162 254.513 1.16162 253.731V201.967Z" fill="#151513"/>
<path d="M31.7106 235.356C35.0522 235.356 38.3182 236.373 38.3182 236.373C38.3961 230.586 37.6971 227.927 33.2645 227.927C28.8319 227.927 25.3368 229.101 23.9364 229.647C23.1595 229.961 22.6919 229.569 22.4604 228.866L21.8393 226.911C21.5276 225.972 21.9952 225.504 22.6942 225.191C23.1617 224.956 27.6699 223.157 33.4983 223.157C41.426 223.157 43.3696 227.224 43.3696 236.373V253.731C43.3696 254.513 42.6705 255.216 41.8936 255.216H40.4176C39.5627 255.216 39.3289 254.748 39.0951 254.043L38.474 251.931C36.8422 253.572 33.6541 255.998 28.8365 255.998C23.3955 255.998 19.2747 252.009 19.2747 245.754C19.2747 239.499 23.7049 235.354 31.7106 235.354V235.356ZM29.6891 251.308C33.5762 251.308 36.9178 248.885 38.2403 246.93V240.753C37.3074 240.207 35.1301 239.501 31.7106 239.501C27.3582 239.501 24.2481 241.692 24.2481 245.756C24.2481 248.885 26.3475 251.308 29.6891 251.308V251.308Z" fill="#151513"/>
<path d="M55.1064 225.737C54.7947 224.642 55.1064 223.939 56.273 223.939H58.6818C59.3808 223.939 59.9263 224.331 60.0799 224.799L65.7547 245.443H65.8326L74.6152 223.939C74.7711 223.547 75.2363 223.157 75.9376 223.157H76.3273C77.0263 223.157 77.4939 223.549 77.6497 223.939L86.3544 245.521H86.4323L92.0292 224.799C92.185 224.331 92.7282 223.939 93.3516 223.939H95.7604C96.927 223.939 97.2364 224.642 96.927 225.737L88.4538 255.216C88.2979 255.684 87.7548 255.998 87.1314 255.998H86.7417C86.0427 255.998 85.5751 255.606 85.4193 255.216L75.9353 231.759L66.7631 255.216C66.6073 255.608 66.142 255.998 65.4407 255.998H65.051C64.352 255.998 63.8845 255.684 63.7286 255.216L55.0995 225.737H55.1064Z" fill="#151513"/>
<path d="M107.807 215.773C107.807 213.661 109.438 212.019 111.46 212.019C113.481 212.019 115.191 213.661 115.191 215.773C115.191 217.884 113.559 219.448 111.46 219.448C109.361 219.448 107.807 217.806 107.807 215.773ZM108.895 225.426C108.895 224.644 109.594 223.941 110.371 223.941H112.78C113.557 223.941 114.256 224.644 114.256 225.426V253.731C114.256 254.513 113.557 255.216 112.78 255.216H110.371C109.594 255.216 108.895 254.513 108.895 253.731V225.426Z" fill="white"/>
<path d="M129.183 225.426C129.183 224.644 129.882 223.941 130.659 223.941H132.135C132.834 223.941 133.224 224.255 133.38 224.879L134.079 227.303C134.079 227.303 138.509 223.157 144.961 223.157C153.977 223.157 157.009 229.101 157.009 237.233V253.731C157.009 254.513 156.31 255.216 155.533 255.216H153.047C152.27 255.216 151.571 254.513 151.571 253.731V237.233C151.571 231.289 148.928 228.398 144.576 228.398C138.745 228.398 134.549 232.854 134.549 232.854V253.731C134.549 254.513 133.85 255.216 133.073 255.216H130.664C129.887 255.216 129.188 254.513 129.188 253.731V225.426H129.183Z" fill="white"/>
<path d="M168.827 252.95L184.061 229.101V228.866H171.002C170.225 228.866 169.604 228.163 169.604 227.381V225.426C169.604 224.566 170.225 223.941 171.002 223.941H190.513C191.679 223.941 192.456 225.036 191.835 226.053L176.988 250.059V250.294H188.959C189.814 250.294 190.435 250.919 190.435 251.779V253.734C190.435 254.515 189.814 255.218 188.959 255.218H170.303C169.526 255.218 168.827 254.515 168.827 253.734V252.952V252.95Z" fill="white"/>
<path d="M217.019 223.157C225.648 223.157 232.487 230.664 232.487 239.499C232.487 248.334 225.645 255.998 217.019 255.998C208.392 255.998 201.551 248.491 201.551 239.499C201.551 230.507 208.392 223.157 217.019 223.157ZM217.019 250.916C222.693 250.916 227.124 245.832 227.124 239.499C227.124 233.166 222.693 228.317 217.019 228.317C211.344 228.317 206.914 233.322 206.914 239.499C206.914 245.676 211.344 250.916 217.019 250.916Z" fill="white"/>
</g>
<defs>
<clipPath id="clip0_6473_12415">
<rect width="232.079" height="176.401" fill="white" transform="translate(0.960449)"/>
</clipPath>
<clipPath id="clip1_6473_12415">
<rect width="231.325" height="55.5181" fill="white" transform="translate(1.16162 200.482)"/>
</clipPath>
</defs>
</svg>
