<svg width="19" height="19" viewBox="0 0 19 19" fill="none" xmlns="http://www.w3.org/2000/svg">
<path d="M17.0401 0.515625H1.95986C1.1625 0.515625 0.515625 1.1625 0.515625 1.95986V17.0401C0.515625 17.8375 1.1625 18.4844 1.95986 18.4844H17.0401C17.8375 18.4844 18.4844 17.8375 18.4844 17.0401V1.95986C18.4844 1.1625 17.8375 0.515625 17.0401 0.515625ZM17.0401 17.0469C6.98213 17.0446 1.95312 17.0424 1.95312 17.0401C1.95537 6.98213 1.95762 1.95312 1.95986 1.95312C12.0179 1.95537 17.0469 1.95762 17.0469 1.95986C17.0446 12.0179 17.0424 17.0469 17.0401 17.0469ZM3.17949 7.25166H5.84561V15.8272H3.17949V7.25166ZM4.51367 6.0792C5.36494 6.0792 6.05898 5.3874 6.05898 4.53389C6.05898 4.33095 6.01901 4.13001 5.94135 3.94252C5.8637 3.75504 5.74987 3.58468 5.60637 3.44119C5.46288 3.29769 5.29252 3.18386 5.10504 3.1062C4.91755 3.02854 4.71661 2.98857 4.51367 2.98857C4.31074 2.98857 4.10979 3.02854 3.92231 3.1062C3.73482 3.18386 3.56447 3.29769 3.42097 3.44119C3.27748 3.58468 3.16365 3.75504 3.08599 3.94252C3.00833 4.13001 2.96836 4.33095 2.96836 4.53389C2.96611 5.3874 3.65791 6.0792 4.51367 6.0792ZM10.1806 11.5844C10.1806 10.4658 10.3939 9.3832 11.7798 9.3832C13.1454 9.3832 13.1656 10.6612 13.1656 11.6562V15.8272H15.8295V11.1239C15.8295 8.81494 15.3309 7.03828 12.6333 7.03828C11.3373 7.03828 10.4681 7.75029 10.1109 8.42412H10.075V7.25166H7.5167V15.8272H10.1806V11.5844Z" fill="black"/>
</svg>
