<svg width="287" height="215" viewBox="0 0 287 215" fill="none" xmlns="http://www.w3.org/2000/svg">
<path d="M140.103 14.9699C140.566 11.5739 135.781 8.78622 132.185 8.49565C130.469 8.35944 128.689 8.62278 127.064 8.05071C123.541 6.82487 122.133 2.27562 118.701 0.82276C116.131 -0.2578 113.18 0.704716 110.683 1.9578C108.195 3.21089 105.734 4.79087 102.946 4.9634C100.531 5.11776 97.8978 4.21881 95.782 5.39925C94.2021 6.28005 93.3757 8.09611 91.9229 9.16759C90.4973 10.2209 88.6449 10.4388 86.8833 10.5387C85.1217 10.6386 83.2875 10.6568 81.6803 11.3923C80.073 12.1278 78.7473 13.8258 79.0742 15.5602L140.094 14.9609L140.103 14.9699Z" fill="#F5F5F5"/>
<path d="M78.4477 77.7517C79.0379 73.4385 72.9541 69.8881 68.3776 69.5158C66.1983 69.3433 63.9282 69.6702 61.8579 68.9528C57.3813 67.391 55.5925 61.6068 51.2158 59.7635C47.9468 58.3833 44.1876 59.6092 41.0185 61.2073C37.8495 62.8055 34.7168 64.8122 31.1845 65.0301C28.1063 65.2299 24.7647 64.0858 22.0679 65.5931C20.0611 66.71 19.0078 69.0255 17.1645 70.3875C15.3575 71.7224 12.9966 72.0038 10.7447 72.131C8.50183 72.249 6.17726 72.2763 4.13418 73.2115C2.09111 74.1468 0.402162 76.3079 0.819858 78.5144L78.4386 77.7517H78.4477Z" fill="#F5F5F5"/>
<path d="M234.399 73.6413C231.616 73.6413 229.123 72.2043 227.72 69.7962C226.317 67.3823 226.306 64.4913 227.697 62.0718L249.842 23.4445C251.234 21.0192 253.727 19.5709 256.522 19.5596H256.544C259.327 19.5596 261.821 20.9965 263.224 23.4047L285.602 61.8957C287.004 64.3096 287.016 67.2006 285.624 69.6201C284.233 72.0453 281.739 73.4936 278.945 73.505L234.422 73.6413H234.399ZM256.544 21.8712H256.527C254.568 21.8769 252.819 22.8935 251.842 24.5974L229.697 63.2248C228.725 64.923 228.731 66.9506 229.714 68.6432C230.696 70.33 232.446 71.3353 234.399 71.3353H234.417L278.939 71.199C280.899 71.1934 282.648 70.1767 283.625 68.4728C284.596 66.7746 284.591 64.7469 283.608 63.0544L261.23 24.5633C260.248 22.8765 258.498 21.8712 256.544 21.8712Z" fill="#EBEBEB"/>
<path d="M252.199 38.5864L253.233 52.99C253.318 54.1657 254.267 55.0972 255.448 55.1596C256.692 55.2221 257.766 54.302 257.896 53.0582L259.373 38.558C259.486 37.4618 258.612 36.5133 257.504 36.536L253.989 36.6156C252.938 36.6383 252.126 37.5357 252.199 38.5807V38.5864Z" fill="#EBEBEB"/>
<path d="M259.339 63.2302C258.742 65.0818 256.76 66.0928 254.909 65.4964C253.057 64.9001 252.046 62.9179 252.643 61.0663C253.239 59.2147 255.221 58.2037 257.073 58.8001C258.924 59.3965 259.935 61.3787 259.339 63.2302Z" fill="#EBEBEB"/>
<path d="M215.949 146.793C224.947 109.542 202.044 72.0494 164.793 63.0512C127.542 54.053 90.0493 76.9564 81.0511 114.207C72.0529 151.458 94.9563 188.951 132.207 197.949C169.458 206.947 206.951 184.044 215.949 146.793Z" fill="#FFFAEA"/>
<path d="M151.599 161.066C151.585 164.233 149.004 166.786 145.838 166.772C142.671 166.758 140.118 164.177 140.132 161.011C140.146 157.844 142.727 155.291 145.893 155.305C149.06 155.319 151.613 157.9 151.599 161.066Z" fill="#4D4D4D"/>
<path d="M134.398 153.701C140.69 147.088 150.929 146.893 157.388 153.394C160.318 156.337 164.894 151.803 161.964 148.86C153.106 139.932 138.556 139.988 129.851 149.125C126.991 152.124 131.525 156.714 134.384 153.701H134.398Z" fill="#4D4D4D"/>
<path d="M114.924 127C123.643 119.467 134.05 114.723 145.712 114.696C157.263 114.668 168.66 118.769 177.114 126.721C180.141 129.553 184.731 125.033 181.69 122.187C171.994 113.091 159.007 108.223 145.74 108.264C132.334 108.292 120.406 113.775 110.39 122.438C107.237 125.158 111.799 129.72 114.924 127.014V127Z" fill="#4D4D4D"/>
<path d="M122.61 141.801C128.456 135.482 136.644 131.52 145.308 131.325C154.194 131.115 162.787 134.784 168.967 141.132C171.869 144.117 176.445 139.569 173.543 136.598C166.233 129.079 155.854 124.628 145.335 124.879C135.04 125.117 125.052 129.664 118.077 137.225C115.259 140.267 119.792 144.856 122.61 141.801Z" fill="#4D4D4D"/>
<path d="M200.026 114.888C201.718 105.321 195.335 96.1942 185.768 94.5021C176.201 92.81 167.073 99.1939 165.381 108.761C163.689 118.328 170.073 127.455 179.64 129.147C189.207 130.839 198.334 124.455 200.026 114.888Z" fill="#EABF4E"/>
<path d="M180.033 116.826L188.713 108.145C189.402 107.456 189.402 106.339 188.713 105.649C188.024 104.96 186.907 104.96 186.218 105.649L177.537 114.33C176.848 115.019 176.848 116.137 177.537 116.826C178.226 117.515 179.344 117.515 180.033 116.826Z" fill="white"/>
<path d="M188.703 114.344L180.022 105.664C179.333 104.974 178.215 104.974 177.526 105.664C176.837 106.353 176.837 107.47 177.526 108.159L186.207 116.84C186.896 117.529 188.013 117.529 188.703 116.84C189.392 116.151 189.392 115.033 188.703 114.344Z" fill="white"/>
</svg>
