<svg width="345" height="345" viewBox="0 0 345 345" fill="none" xmlns="http://www.w3.org/2000/svg">
<rect x="3.63396" y="117.867" width="251" height="251" rx="30" transform="rotate(-27.0721 3.63396 117.867)" stroke="#36B37E" stroke-width="4"/>
<rect x="17.6911" y="122.78" width="230.909" height="230.909" rx="30" transform="rotate(-27.0721 17.6911 122.78)" stroke="#36B37E" stroke-width="4"/>
<path d="M61.3955 143.621L55.8866 138.969L49.195 141.662L51.925 134.97L47.3083 129.455L54.4809 129.988L58.3232 123.867L60.0399 130.872L67.0322 132.633L60.8995 136.427L61.3955 143.621Z" fill="#36B37E"/>
<path d="M136.651 307.064L131.142 302.412L124.451 305.104L127.181 298.413L122.564 292.898L129.737 293.43L133.579 287.309L135.296 294.315L142.288 296.075L136.155 299.869L136.651 307.064Z" fill="#36B37E"/>
<path d="M215.651 61.0639L210.142 56.4117L203.451 59.1044L206.181 52.4128L201.564 46.8977L208.737 47.4301L212.579 41.309L214.296 48.3148L221.288 50.0752L215.155 53.8694L215.651 61.0639Z" fill="#36B37E"/>
<path d="M303.651 223.064L298.142 218.412L291.451 221.104L294.181 214.413L289.564 208.898L296.737 209.43L300.579 203.309L302.296 210.315L309.288 212.075L303.155 215.869L303.651 223.064Z" fill="#36B37E"/>
<path d="M171.443 263.921C170.978 265.305 170.32 266.477 169.471 267.436C168.627 268.377 167.652 269.019 166.544 269.365C165.437 269.71 164.273 269.688 163.053 269.3L164.486 265.034C165.321 265.251 166.061 265.183 166.707 264.83C167.359 264.459 167.838 263.818 168.144 262.908C168.456 261.979 168.483 261.176 168.225 260.498C167.948 259.815 167.45 259.352 166.729 259.11C166.142 258.912 165.598 258.93 165.098 259.163C164.597 259.396 164.151 259.752 163.757 260.232C163.352 260.686 162.857 261.343 162.273 262.202C161.461 263.363 160.737 264.291 160.103 264.986C159.457 265.655 158.665 266.159 157.728 266.498C156.779 266.812 155.678 266.759 154.427 266.339C153.252 265.944 152.327 265.306 151.652 264.425C150.977 263.545 150.591 262.497 150.492 261.282C150.375 260.062 150.546 258.769 151.004 257.404C151.692 255.356 152.752 253.866 154.183 252.933C155.602 251.975 157.225 251.729 159.052 252.195L157.58 256.574C156.885 256.383 156.227 256.489 155.606 256.892C154.973 257.27 154.507 257.905 154.207 258.796C153.946 259.573 153.935 260.266 154.174 260.874C154.419 261.462 154.921 261.884 155.68 262.139C156.211 262.317 156.713 262.296 157.188 262.076C157.65 261.83 158.081 261.49 158.481 261.054C158.868 260.594 159.363 259.937 159.965 259.085C160.778 257.923 161.51 256.998 162.163 256.31C162.816 255.622 163.621 255.112 164.576 254.779C165.532 254.446 166.626 254.486 167.859 254.9C168.92 255.257 169.814 255.863 170.539 256.718C171.265 257.574 171.724 258.625 171.917 259.871C172.091 261.111 171.933 262.461 171.443 263.921ZM156.231 242.786L168.516 246.913C169.862 247.365 171.014 247.361 171.97 246.902C172.907 246.436 173.589 245.568 174.015 244.298C174.448 243.008 174.432 241.895 173.966 240.958C173.481 240.015 172.566 239.317 171.22 238.865L158.934 234.738L160.281 230.728L172.538 234.845C174.226 235.412 175.533 236.263 176.46 237.397C177.375 238.506 177.919 239.775 178.092 241.205C178.273 242.616 178.111 244.07 177.608 245.568C177.111 247.046 176.365 248.294 175.37 249.31C174.381 250.307 173.19 250.962 171.798 251.275C170.387 251.581 168.838 251.451 167.151 250.884L154.894 246.767L156.231 242.786ZM171.145 231.172C169.193 230.517 167.595 229.495 166.352 228.107C165.097 226.693 164.297 225.085 163.954 223.282C163.597 221.453 163.738 219.591 164.375 217.695C165.12 215.477 166.341 213.724 168.039 212.438C169.737 211.152 171.703 210.515 173.935 210.526L172.397 215.105C171.296 215.241 170.369 215.647 169.615 216.322C168.867 216.978 168.311 217.846 167.948 218.927C167.56 220.084 167.488 221.209 167.732 222.304C167.963 223.373 168.486 224.329 169.3 225.173C170.12 225.997 171.194 226.632 172.521 227.077C173.829 227.517 175.068 227.659 176.239 227.503C177.397 227.323 178.4 226.879 179.249 226.173C180.086 225.441 180.698 224.497 181.087 223.34C181.45 222.26 181.531 221.232 181.331 220.258C181.118 219.258 180.615 218.371 179.819 217.598L181.357 213.019C183.163 214.364 184.355 216.062 184.932 218.113C185.496 220.138 185.403 222.269 184.651 224.506C184.014 226.402 183.011 227.975 181.642 229.224C180.261 230.447 178.652 231.247 176.817 231.622C174.989 231.978 173.098 231.828 171.145 231.172ZM178.478 209.344C176.525 208.688 174.928 207.666 173.685 206.278C172.429 204.865 171.63 203.256 171.286 201.453C170.93 199.624 171.07 197.762 171.707 195.866C172.452 193.648 173.674 191.896 175.372 190.61C177.07 189.323 179.035 188.686 181.268 188.697L179.73 193.276C178.629 193.413 177.701 193.818 176.947 194.493C176.199 195.149 175.644 196.018 175.281 197.098C174.892 198.255 174.82 199.38 175.064 200.475C175.296 201.545 175.819 202.501 176.633 203.344C177.453 204.168 178.527 204.803 179.854 205.249C181.162 205.688 182.401 205.83 183.572 205.675C184.729 205.494 185.733 205.05 186.582 204.344C187.418 203.612 188.031 202.668 188.419 201.512C188.782 200.431 188.864 199.404 188.664 198.429C188.451 197.429 187.947 196.543 187.152 195.769L188.69 191.191C190.496 192.536 191.687 194.233 192.264 196.284C192.829 198.309 192.735 200.44 191.984 202.677C191.347 204.573 190.344 206.146 188.975 207.395C187.593 208.619 185.985 209.418 184.15 209.793C182.321 210.15 180.431 210 178.478 209.344ZM180.79 180.322L185.767 181.994L188.012 175.311L191.168 176.371L188.923 183.054L194.184 184.821L196.716 177.285L199.958 178.374L196.089 189.892L176.21 183.214L180.079 171.697L183.321 172.786L180.79 180.322ZM203.675 167.969C203.21 169.353 202.552 170.525 201.703 171.484C200.859 172.425 199.884 173.068 198.776 173.413C197.669 173.758 196.505 173.736 195.285 173.348L196.718 169.082C197.552 169.299 198.293 169.231 198.938 168.879C199.591 168.507 200.07 167.866 200.375 166.956C200.688 166.027 200.715 165.224 200.457 164.547C200.18 163.863 199.682 163.4 198.961 163.158C198.374 162.961 197.83 162.978 197.329 163.211C196.829 163.444 196.383 163.8 195.989 164.28C195.583 164.734 195.089 165.391 194.505 166.25C193.692 167.412 192.969 168.34 192.335 169.034C191.689 169.703 190.897 170.207 189.96 170.546C189.011 170.86 187.91 170.807 186.659 170.387C185.484 169.992 184.558 169.354 183.884 168.474C183.209 167.593 182.823 166.545 182.724 165.331C182.607 164.11 182.777 162.817 183.236 161.452C183.924 159.404 184.983 157.914 186.415 156.981C187.834 156.023 189.457 155.777 191.283 156.243L189.812 160.623C189.117 160.431 188.459 160.537 187.838 160.941C187.205 161.319 186.739 161.953 186.439 162.844C186.178 163.622 186.167 164.314 186.406 164.922C186.651 165.511 187.153 165.932 187.912 166.187C188.442 166.365 188.945 166.344 189.42 166.124C189.882 165.879 190.313 165.538 190.713 165.103C191.1 164.642 191.594 163.985 192.197 163.133C193.009 161.971 193.742 161.046 194.395 160.358C195.048 159.67 195.853 159.16 196.808 158.827C197.764 158.494 198.858 158.535 200.09 158.948C201.152 159.305 202.046 159.911 202.771 160.767C203.496 161.622 203.956 162.673 204.149 163.92C204.323 165.16 204.165 166.509 203.675 167.969ZM209.496 150.64C209.031 152.024 208.374 153.195 207.524 154.155C206.681 155.095 205.705 155.738 204.597 156.083C203.49 156.429 202.326 156.407 201.106 156.018L202.539 151.752C203.374 151.969 204.114 151.902 204.76 151.549C205.412 151.177 205.891 150.536 206.197 149.626C206.509 148.697 206.536 147.894 206.278 147.217C206.002 146.533 205.503 146.07 204.783 145.828C204.195 145.631 203.651 145.649 203.151 145.882C202.651 146.114 202.204 146.471 201.811 146.95C201.405 147.405 200.91 148.061 200.326 148.92C199.514 150.082 198.791 151.01 198.157 151.704C197.51 152.373 196.718 152.877 195.781 153.217C194.832 153.531 193.732 153.478 192.48 153.057C191.305 152.662 190.38 152.025 189.705 151.144C189.03 150.263 188.644 149.216 188.546 148.001C188.428 146.78 188.599 145.487 189.057 144.122C189.745 142.075 190.805 140.584 192.236 139.652C193.655 138.694 195.278 138.448 197.105 138.914L195.634 143.293C194.938 143.102 194.28 143.208 193.66 143.611C193.026 143.989 192.56 144.624 192.261 145.515C192 146.292 191.988 146.985 192.227 147.592C192.473 148.181 192.974 148.603 193.733 148.857C194.264 149.036 194.767 149.015 195.241 148.795C195.704 148.549 196.135 148.208 196.534 147.773C196.921 147.312 197.416 146.656 198.019 145.803C198.831 144.641 199.563 143.716 200.216 143.029C200.869 142.341 201.674 141.83 202.63 141.497C203.585 141.164 204.679 141.205 205.912 141.619C206.974 141.975 207.867 142.582 208.592 143.437C209.318 144.293 209.777 145.344 209.97 146.59C210.144 147.83 209.986 149.18 209.496 150.64ZM197.083 121.172L200.297 122.251L197.517 130.527L202.607 132.237L204.738 125.895L207.894 126.956L205.764 133.297L214.153 136.115L212.816 140.097L192.966 133.429L197.083 121.172ZM199.35 114.424L211.635 118.551C212.981 119.003 214.132 119 215.088 118.54C216.026 118.074 216.707 117.206 217.134 115.936C217.567 114.647 217.551 113.534 217.085 112.597C216.6 111.653 215.685 110.955 214.339 110.503L202.053 106.376L203.4 102.366L215.657 106.484C217.345 107.051 218.652 107.901 219.579 109.035C220.493 110.144 221.037 111.414 221.211 112.843C221.391 114.254 221.23 115.708 220.727 117.206C220.23 118.685 219.484 119.932 218.489 120.948C217.5 121.945 216.309 122.6 214.917 122.913C213.506 123.22 211.957 123.09 210.269 122.523L198.012 118.406L199.35 114.424ZM222.723 100.146L224.92 93.605L228.077 94.6654L224.542 105.188L204.692 98.5196L206.03 94.5383L222.723 100.146Z" fill="#36B37E"/>
<path d="M123.795 229.117C125.211 229.593 126.423 230.38 127.433 231.478C128.451 232.551 129.097 233.936 129.371 235.632C129.654 237.302 129.43 239.224 128.7 241.398L127.21 245.834L137.372 249.248L135.588 254.557L109.122 245.666L112.395 235.921C113.083 233.873 114.023 232.248 115.215 231.045C116.407 229.842 117.741 229.094 119.217 228.803C120.702 228.486 122.228 228.591 123.795 229.117ZM124.339 240.186C124.831 238.72 124.868 237.523 124.448 236.594C124.004 235.657 123.175 234.985 121.961 234.577C119.383 233.711 117.61 234.719 116.642 237.601L115.228 241.809L122.925 244.395L124.339 240.186ZM143.746 213.564L140.205 224.106L144.662 227.544L142.79 233.118L119.483 214.697L121.559 208.517L151.26 207.902L149.375 213.514L143.746 213.564ZM139.015 213.579L126.657 213.689L136.443 221.238L139.015 213.579ZM133.058 174.41L147.305 189.154L156.519 192.249L154.735 197.558L145.521 194.463L125.25 197.654L127.262 191.663L141.269 190.038L131.071 180.325L133.058 174.41ZM143.779 142.493L170.246 151.384L168.463 156.692L151.248 150.909L166.081 163.783L164.731 167.802L145.122 169.148L162.336 174.931L160.553 180.239L134.086 171.348L136.112 165.319L158.619 163.512L141.767 148.484L143.779 142.493ZM151.61 133.375L158.246 135.604L161.239 126.694L165.448 128.108L162.455 137.018L169.47 139.375L172.845 129.326L177.168 130.778L172.009 146.135L145.505 137.232L150.663 121.875L154.986 123.327L151.61 133.375ZM186.392 103.317L184.609 108.626L162.409 114.545L180.571 120.646L178.788 125.954L152.284 117.051L154.067 111.742L176.305 105.836L158.105 99.7225L159.888 94.414L186.392 103.317ZM167.738 71.1698L172.023 72.6091L169.654 79.6618L191.836 87.1131L190.052 92.4216L167.87 84.9703L165.501 92.023L161.217 90.5837L167.738 71.1698Z" fill="#36B37E"/>
<line x1="257.952" y1="83.3054" x2="189.952" y2="295.305" stroke="#36B37E" stroke-width="2"/>
<line x1="257.952" y1="83.3054" x2="189.952" y2="295.305" stroke="#36B37E" stroke-width="2"/>
<line x1="262.952" y1="94.306" x2="199.952" y2="290.306" stroke="#36B37E" stroke-width="2"/>
</svg>
