<svg width="344" height="344" viewBox="0 0 344 344" fill="none" xmlns="http://www.w3.org/2000/svg">
<rect x="2.69109" y="116.924" width="251" height="251" rx="30" transform="rotate(-27.0721 2.69109 116.924)" stroke="#B3261E" stroke-width="4"/>
<rect x="16.7482" y="121.837" width="230.909" height="230.909" rx="30" transform="rotate(-27.0721 16.7482 121.837)" stroke="#B3261E" stroke-width="4"/>
<path d="M60.4527 142.679L54.9437 138.026L48.2521 140.719L50.9821 134.028L46.3654 128.512L53.5381 129.045L57.3803 122.924L59.097 129.93L66.0893 131.69L59.9566 135.484L60.4527 142.679Z" fill="#B3261E"/>
<path d="M135.709 306.121L130.2 301.469L123.508 304.162L126.238 297.47L121.621 291.955L128.794 292.487L132.636 286.366L134.353 293.372L141.345 295.132L135.212 298.927L135.709 306.121Z" fill="#B3261E"/>
<path d="M214.709 60.121L209.2 55.4688L202.508 58.1615L205.238 51.4699L200.621 45.9549L207.794 46.4872L211.636 40.3661L213.353 47.3719L220.345 49.1323L214.212 52.9265L214.709 60.121Z" fill="#B3261E"/>
<path d="M302.709 222.121L297.2 217.469L290.508 220.162L293.238 213.47L288.621 207.955L295.794 208.487L299.636 202.366L301.353 209.372L308.345 211.132L302.212 214.927L302.709 222.121Z" fill="#B3261E"/>
<path d="M173.209 206.572L176.422 207.651L173.642 215.927L178.733 217.637L180.863 211.295L184.02 212.355L181.889 218.697L190.279 221.515L188.941 225.497L169.091 218.829L173.209 206.572ZM194.313 196.974L191.658 204.88L195.001 207.459L193.596 211.639L176.116 197.824L177.673 193.188L199.949 192.728L198.535 196.937L194.313 196.974ZM190.765 196.985L181.496 197.068L188.836 202.73L190.765 196.985ZM182.333 179.41L202.183 186.078L200.845 190.06L180.995 183.392L182.333 179.41ZM201.685 177.103L203.882 170.562L207.039 171.623L203.504 182.145L183.654 175.477L184.991 171.495L201.685 177.103ZM192.59 159.522L197.566 161.194L199.811 154.511L202.968 155.571L200.723 162.254L205.984 164.022L208.516 156.485L211.758 157.574L207.889 169.092L188.01 162.415L191.879 150.897L195.121 151.986L192.59 159.522ZM195.454 140.349C196.154 138.264 197.177 136.571 198.52 135.272C199.871 133.953 201.447 133.122 203.251 132.778C205.041 132.409 206.932 132.559 208.923 133.228C210.914 133.896 212.511 134.918 213.716 136.294C214.908 137.643 215.645 139.252 215.925 141.118C216.211 142.965 216.004 144.932 215.304 147.017L212.973 153.956L193.123 147.288L195.454 140.349ZM211.872 146.023C212.573 143.937 212.545 142.135 211.79 140.615C211.034 139.095 209.623 137.989 207.557 137.294C205.49 136.6 203.688 136.628 202.149 137.377C200.591 138.119 199.462 139.533 198.762 141.619L197.816 144.434L210.926 148.838L211.872 146.023Z" fill="#B3261E"/>
<path d="M122.852 228.174C124.268 228.65 125.481 229.437 126.49 230.535C127.508 231.609 128.154 232.993 128.428 234.689C128.711 236.359 128.487 238.281 127.757 240.455L126.267 244.892L136.429 248.305L134.646 253.614L108.179 244.723L111.452 234.978C112.14 232.931 113.08 231.305 114.272 230.102C115.464 228.899 116.798 228.152 118.274 227.86C119.759 227.543 121.285 227.648 122.852 228.174ZM123.396 239.243C123.888 237.777 123.925 236.58 123.506 235.651C123.061 234.714 122.232 234.042 121.018 233.634C118.44 232.768 116.667 233.776 115.699 236.658L114.285 240.867L121.982 243.452L123.396 239.243ZM142.803 212.622L139.262 223.163L143.72 226.601L141.847 232.175L118.54 213.754L120.616 207.574L150.318 206.96L148.432 212.571L142.803 212.622ZM138.073 212.636L125.714 212.746L135.5 220.295L138.073 212.636ZM132.115 173.467L146.362 188.211L155.576 191.306L153.793 196.615L144.578 193.52L124.307 196.711L126.32 190.72L140.326 189.095L130.128 179.382L132.115 173.467ZM142.837 141.55L169.303 150.441L167.52 155.749L150.305 149.966L165.138 162.84L163.788 166.859L144.179 168.205L161.393 173.988L159.61 179.296L133.143 170.406L135.169 164.377L157.676 162.569L140.824 147.541L142.837 141.55ZM150.667 132.433L157.303 134.662L160.296 125.751L164.505 127.165L161.512 136.075L168.527 138.432L171.902 128.384L176.225 129.836L171.066 145.192L144.562 136.289L149.72 120.932L154.043 122.384L150.667 132.433ZM185.449 102.374L183.666 107.683L161.466 113.602L179.629 119.703L177.845 125.011L151.341 116.108L153.124 110.8L175.362 104.894L157.162 98.7796L158.945 93.4712L185.449 102.374ZM166.795 70.2269L171.08 71.6662L168.711 78.719L190.893 86.1702L189.11 91.4787L166.928 84.0274L164.558 91.0802L160.274 89.6409L166.795 70.2269Z" fill="#B3261E"/>
<line x1="257.009" y1="82.3626" x2="189.009" y2="294.363" stroke="#B3261E" stroke-width="2"/>
<line x1="257.009" y1="82.3626" x2="189.009" y2="294.363" stroke="#B3261E" stroke-width="2"/>
<line x1="262.009" y1="93.3631" x2="199.009" y2="289.363" stroke="#B3261E" stroke-width="2"/>
</svg>
