<svg width="24" height="25" viewBox="0 0 24 25" fill="none" xmlns="http://www.w3.org/2000/svg">
<mask id="mask0_3491_11553" style="mask-type:alpha" maskUnits="userSpaceOnUse" x="0" y="0" width="24" height="25">
<rect y="0.894745" width="24" height="24" fill="#D9D9D9"/>
</mask>
<g mask="url(#mask0_3491_11553)">
<path d="M20 12.8947C19.7333 12.8947 19.4958 12.7989 19.2875 12.6072C19.0792 12.4156 18.9583 12.1781 18.925 11.8947C18.7083 10.3447 18.0542 9.02391 16.9625 7.93224C15.8708 6.84058 14.55 6.18641 13 5.96974C12.7167 5.93641 12.4792 5.81974 12.2875 5.61974C12.0958 5.41974 12 5.17808 12 4.89474C12 4.61141 12.1 4.37391 12.3 4.18224C12.5 3.99058 12.7333 3.91141 13 3.94474C15.1 4.17808 16.8917 5.03641 18.375 6.51974C19.8583 8.00308 20.7167 9.79474 20.95 11.8947C20.9833 12.1614 20.9042 12.3947 20.7125 12.5947C20.5208 12.7947 20.2833 12.8947 20 12.8947ZM15.825 12.8947C15.6083 12.8947 15.4167 12.8197 15.25 12.6697C15.0833 12.5197 14.9583 12.3197 14.875 12.0697C14.7417 11.5864 14.4875 11.1572 14.1125 10.7822C13.7375 10.4072 13.3083 10.1531 12.825 10.0197C12.575 9.93641 12.375 9.81141 12.225 9.64474C12.075 9.47808 12 9.27808 12 9.04474C12 8.71141 12.1167 8.44058 12.35 8.23224C12.5833 8.02391 12.8417 7.95308 13.125 8.01974C14.0583 8.23641 14.8625 8.68224 15.5375 9.35724C16.2125 10.0322 16.6583 10.8364 16.875 11.7697C16.9417 12.0531 16.8667 12.3114 16.65 12.5447C16.4333 12.7781 16.1583 12.8947 15.825 12.8947ZM19.95 21.8947C17.8 21.8947 15.7042 21.4156 13.6625 20.4572C11.6208 19.4989 9.8125 18.2322 8.2375 16.6572C6.6625 15.0822 5.39583 13.2739 4.4375 11.2322C3.47917 9.19058 3 7.09475 3 4.94474C3 4.64474 3.1 4.39474 3.3 4.19474C3.5 3.99474 3.75 3.89474 4.05 3.89474H8.1C8.33333 3.89474 8.54167 3.96974 8.725 4.11974C8.90833 4.26974 9.01667 4.46141 9.05 4.69474L9.7 8.19475C9.73333 8.42808 9.72917 8.64058 9.6875 8.83224C9.64583 9.02391 9.55 9.19475 9.4 9.34475L7 11.7947C7.7 12.9947 8.575 14.1197 9.625 15.1697C10.675 16.2197 11.8333 17.1281 13.1 17.8947L15.45 15.5447C15.6 15.3947 15.7958 15.2822 16.0375 15.2072C16.2792 15.1322 16.5167 15.1114 16.75 15.1447L20.2 15.8447C20.4333 15.8947 20.625 16.0072 20.775 16.1822C20.925 16.3572 21 16.5614 21 16.7947V20.8447C21 21.1447 20.9 21.3947 20.7 21.5947C20.5 21.7947 20.25 21.8947 19.95 21.8947ZM6.05 9.89474L7.7 8.24474L7.25 5.89474H5.05C5.13333 6.57808 5.25 7.25308 5.4 7.91974C5.55 8.58641 5.76667 9.24474 6.05 9.89474ZM19 19.8447V17.6447L16.65 17.1447L15 18.7947C15.65 19.0781 16.3083 19.3114 16.975 19.4947C17.6417 19.6781 18.3167 19.7947 19 19.8447Z" fill="#EABF4E"/>
</g>
</svg>
