<svg width="98" height="30" viewBox="0 0 98 30" fill="none" xmlns="http://www.w3.org/2000/svg">
<path d="M94.3704 29.037H3.62963C1.59704 29.037 0 27.44 0 25.4074V3.62963C0 1.59704 1.59704 0 3.62963 0H94.3704C96.403 0 98 1.59704 98 3.62963V25.4074C98 27.44 96.403 29.037 94.3704 29.037Z" fill="black"/>
<path d="M94.3704 0.580741C96.04 0.580741 97.4193 1.96 97.4193 3.62963V25.4074C97.4193 27.077 96.04 28.4563 94.3704 28.4563H3.62963C1.96 28.4563 0.580741 27.077 0.580741 25.4074V3.62963C0.580741 1.96 1.96 0.580741 3.62963 0.580741H94.3704ZM94.3704 0H3.62963C1.59704 0 0 1.66963 0 3.62963V25.4074C0 27.44 1.59704 29.037 3.62963 29.037H94.3704C96.403 29.037 98 27.44 98 25.4074V3.62963C98 1.66963 96.403 0 94.3704 0Z" fill="#A6A6A6"/>
<path d="M35.4088 7.40445C35.4088 7.98519 35.2636 8.49334 34.9006 8.8563C34.4651 9.29186 33.9569 9.50964 33.3036 9.50964C32.6503 9.50964 32.1421 9.29186 31.7066 8.8563C31.271 8.42075 31.0532 7.9126 31.0532 7.25927C31.0532 6.60593 31.271 6.09778 31.7066 5.66223C32.1421 5.22667 32.6503 5.0089 33.3036 5.0089C33.594 5.0089 33.8843 5.08149 34.1747 5.22667C34.4651 5.37186 34.6829 5.51704 34.828 5.73482L34.4651 6.09778C34.1747 5.73482 33.8117 5.58964 33.3036 5.58964C32.868 5.58964 32.4325 5.73482 32.1421 6.09778C31.7791 6.38815 31.634 6.82371 31.634 7.33186C31.634 7.84001 31.7791 8.27556 32.1421 8.56593C32.5051 8.8563 32.868 9.07408 33.3036 9.07408C33.8117 9.07408 34.1747 8.9289 34.5377 8.56593C34.7554 8.34816 34.9006 8.05779 34.9006 7.69482H33.3036V7.11408H35.4088V7.40445ZM38.748 5.58964H36.788V6.9689H38.6029V7.47704H36.788V8.8563H38.748V9.43704H36.2073V5.08149H38.748V5.58964ZM41.1436 9.43704H40.5629V5.58964H39.3288V5.08149H42.3777V5.58964H41.1436V9.43704ZM44.4829 9.43704V5.08149H45.0636V9.43704H44.4829ZM47.5317 9.43704H46.951V5.58964H45.7169V5.08149H48.6932V5.58964H47.4591V9.43704H47.5317ZM54.428 8.8563C53.9925 9.29186 53.4843 9.50964 52.831 9.50964C52.1777 9.50964 51.6695 9.29186 51.234 8.8563C50.7984 8.42075 50.5806 7.9126 50.5806 7.25927C50.5806 6.60593 50.7984 6.09778 51.234 5.66223C51.6695 5.22667 52.1777 5.0089 52.831 5.0089C53.4843 5.0089 53.9925 5.22667 54.428 5.66223C54.8636 6.09778 55.0814 6.60593 55.0814 7.25927C55.0814 7.9126 54.8636 8.42075 54.428 8.8563ZM51.6695 8.49334C51.9599 8.78371 52.3954 9.00149 52.831 9.00149C53.2666 9.00149 53.7021 8.8563 53.9925 8.49334C54.2829 8.20297 54.5006 7.76741 54.5006 7.25927C54.5006 6.75112 54.3554 6.31556 53.9925 6.02519C53.7021 5.73482 53.2666 5.51704 52.831 5.51704C52.3954 5.51704 51.9599 5.66223 51.6695 6.02519C51.3791 6.31556 51.1614 6.75112 51.1614 7.25927C51.1614 7.76741 51.3066 8.20297 51.6695 8.49334ZM55.8799 9.43704V5.08149H56.5332L58.6384 8.49334V5.08149H59.2191V9.43704H58.6384L56.388 5.88001V9.43704H55.8799Z" fill="white" stroke="white" stroke-width="1.18519" stroke-miterlimit="10"/>
<path d="M49.4354 15.8252C47.6932 15.8252 46.314 17.1319 46.314 18.9467C46.314 20.6889 47.6932 22.0682 49.4354 22.0682C51.1777 22.0682 52.5569 20.7615 52.5569 18.9467C52.5569 17.0593 51.1777 15.8252 49.4354 15.8252ZM49.4354 20.7615C48.4917 20.7615 47.6932 19.963 47.6932 18.8741C47.6932 17.7852 48.4917 16.9867 49.4354 16.9867C50.3792 16.9867 51.1777 17.7126 51.1777 18.8741C51.1777 19.963 50.3792 20.7615 49.4354 20.7615ZM42.6843 15.8252C40.9421 15.8252 39.5629 17.1319 39.5629 18.9467C39.5629 20.6889 40.9421 22.0682 42.6843 22.0682C44.4266 22.0682 45.8058 20.7615 45.8058 18.9467C45.8058 17.0593 44.4266 15.8252 42.6843 15.8252ZM42.6843 20.7615C41.7406 20.7615 40.9421 19.963 40.9421 18.8741C40.9421 17.7852 41.7406 16.9867 42.6843 16.9867C43.628 16.9867 44.4266 17.7126 44.4266 18.8741C44.4266 19.963 43.628 20.7615 42.6843 20.7615ZM34.6266 16.7689V18.0756H37.748C37.6755 18.8015 37.3851 19.3822 37.0221 19.7452C36.5866 20.1807 35.8606 20.6889 34.6266 20.6889C32.6666 20.6889 31.2147 19.1644 31.2147 17.2044C31.2147 15.2444 32.7392 13.72 34.6266 13.72C35.6429 13.72 36.4414 14.1556 37.0221 14.6637L37.9658 13.72C37.1673 12.9941 36.151 12.4133 34.6992 12.4133C32.0858 12.4133 29.8354 14.5911 29.8354 17.2044C29.8354 19.8178 32.0858 21.9956 34.6992 21.9956C36.151 21.9956 37.1673 21.56 38.0384 20.6163C38.9095 19.7452 39.1999 18.5111 39.1999 17.5674C39.1999 17.277 39.1999 16.9867 39.1273 16.7689H34.6266ZM67.5836 17.7852C67.2932 17.0593 66.5673 15.8252 64.9703 15.8252C63.3732 15.8252 62.0666 17.0593 62.0666 18.9467C62.0666 20.6889 63.3732 22.0682 65.1154 22.0682C66.4947 22.0682 67.3658 21.197 67.6562 20.6889L66.6399 19.963C66.2769 20.4711 65.8414 20.8341 65.1154 20.8341C64.3895 20.8341 63.954 20.5437 63.591 19.8904L67.7288 18.1482L67.5836 17.7852ZM63.3732 18.8015C63.3732 17.64 64.3169 16.9867 64.9703 16.9867C65.4784 16.9867 65.9866 17.277 66.1317 17.64L63.3732 18.8015ZM59.9614 21.7778H61.3406V12.7037H59.9614V21.7778ZM57.7836 16.4785C57.4206 16.1156 56.8399 15.7526 56.114 15.7526C54.5895 15.7526 53.1377 17.1319 53.1377 18.8741C53.1377 20.6163 54.5169 21.923 56.114 21.923C56.8399 21.923 57.4206 21.56 57.711 21.197H57.7836V21.6326C57.7836 22.7941 57.1303 23.4474 56.114 23.4474C55.3155 23.4474 54.7347 22.8667 54.5895 22.3585L53.428 22.8667C53.791 23.6652 54.6621 24.6815 56.1866 24.6815C57.7836 24.6815 59.0903 23.7378 59.0903 21.4874V15.9704H57.7836V16.4785ZM56.1866 20.7615C55.2429 20.7615 54.4443 19.963 54.4443 18.8741C54.4443 17.7852 55.2429 16.9867 56.1866 16.9867C57.1303 16.9867 57.8562 17.7852 57.8562 18.8741C57.8562 19.963 57.1303 20.7615 56.1866 20.7615ZM73.8992 12.7037H70.6325V21.7778H72.0117V18.3659H73.8992C75.4236 18.3659 76.8755 17.277 76.8755 15.5348C76.8755 13.7926 75.4236 12.7037 73.8992 12.7037ZM73.9717 17.0593H72.0117V13.9378H73.9717C74.988 13.9378 75.5688 14.8089 75.5688 15.4622C75.4962 16.2607 74.9155 17.0593 73.9717 17.0593ZM82.3199 15.7526C81.3036 15.7526 80.2873 16.1882 79.9243 17.1319L81.1584 17.64C81.4488 17.1319 81.8843 16.9867 82.3925 16.9867C83.1184 16.9867 83.7717 17.4222 83.8443 18.1482V18.2207C83.6266 18.0756 83.0458 17.8578 82.4651 17.8578C81.1584 17.8578 79.8517 18.5837 79.8517 19.8904C79.8517 21.1244 80.9406 21.923 82.1021 21.923C83.0458 21.923 83.4814 21.4874 83.8443 21.0519H83.9169V21.7778H85.2236V18.2933C85.0784 16.6963 83.8443 15.7526 82.3199 15.7526ZM82.1747 20.7615C81.7392 20.7615 81.0858 20.5437 81.0858 19.963C81.0858 19.237 81.8843 19.0193 82.5377 19.0193C83.1184 19.0193 83.4088 19.1644 83.7717 19.3096C83.6266 20.1807 82.9006 20.7615 82.1747 20.7615ZM89.7969 15.9704L88.2725 19.8904H88.1999L86.6029 15.9704H85.151L87.5466 21.4874L86.1673 24.5363H87.5466L91.2488 15.9704H89.7969ZM77.6014 21.7778H78.9806V12.7037H77.6014V21.7778Z" fill="white"/>
<path d="M7.54965 5.44446C7.33187 5.66224 7.25928 6.0252 7.25928 6.46075V22.5037C7.25928 22.9393 7.40446 23.3022 7.62224 23.52L7.69483 23.5926L16.6963 14.5911V14.4459L7.54965 5.44446Z" fill="url(#paint0_linear_6484_3331)"/>
<path d="M19.5998 17.64L16.6235 14.6637V14.4459L19.5998 11.4696L19.6724 11.5422L23.2295 13.5748C24.2458 14.1556 24.2458 15.0993 23.2295 15.68L19.5998 17.64Z" fill="url(#paint1_linear_6484_3331)"/>
<path d="M19.6728 17.5674L16.6239 14.5185L7.5498 23.5926C7.91277 23.9556 8.42092 23.9556 9.07425 23.6652L19.6728 17.5674Z" fill="url(#paint2_linear_6484_3331)"/>
<path d="M19.6728 11.4696L9.07425 5.44446C8.42092 5.08149 7.91277 5.15409 7.5498 5.51705L16.6239 14.5185L19.6728 11.4696Z" fill="url(#paint3_linear_6484_3331)"/>
<path opacity="0.2" d="M19.6002 17.4948L9.07425 23.4474C8.49351 23.8104 7.98536 23.7378 7.6224 23.4474L7.5498 23.52L7.6224 23.5926C7.98536 23.883 8.49351 23.9556 9.07425 23.5926L19.6002 17.4948Z" fill="black"/>
<path opacity="0.12" d="M7.54965 23.4474C7.33187 23.2296 7.25928 22.8667 7.25928 22.4311V22.5037C7.25928 22.9393 7.40446 23.3022 7.62224 23.52V23.4474H7.54965ZM23.2296 15.4622L19.6 17.4948L19.6726 17.5674L23.2296 15.5348C23.7378 15.2444 23.9556 14.8815 23.9556 14.5185C23.9556 14.8815 23.6652 15.1719 23.2296 15.4622Z" fill="black"/>
<path opacity="0.25" d="M9.07409 5.51705L23.2296 13.5748C23.6652 13.8652 23.9556 14.1556 23.9556 14.5185C23.9556 14.1556 23.7378 13.7926 23.2296 13.5022L9.07409 5.44445C8.0578 4.86371 7.25928 5.29927 7.25928 6.46075V6.53334C7.25928 5.44445 8.0578 4.9363 9.07409 5.51705Z" fill="white"/>
<defs>
<linearGradient id="paint0_linear_6484_3331" x1="15.8252" y1="6.32283" x2="3.64199" y2="18.5053" gradientUnits="userSpaceOnUse">
<stop stop-color="#464849"/>
<stop offset="0.007" stop-color="#00A1FF"/>
<stop offset="0.26" stop-color="#00BEFF"/>
<stop offset="0.512" stop-color="#00D2FF"/>
<stop offset="0.76" stop-color="#00DFFF"/>
<stop offset="1" stop-color="#00E3FF"/>
</linearGradient>
<linearGradient id="paint1_linear_6484_3331" x1="24.5608" y1="14.5193" x2="6.99558" y2="14.5193" gradientUnits="userSpaceOnUse">
<stop stop-color="#FFE000"/>
<stop offset="0.409" stop-color="#FFBD00"/>
<stop offset="0.775" stop-color="#FFA500"/>
<stop offset="1" stop-color="#FF9C00"/>
</linearGradient>
<linearGradient id="paint2_linear_6484_3331" x1="18.0227" y1="16.1852" x2="1.50212" y2="32.7059" gradientUnits="userSpaceOnUse">
<stop stop-color="#FF3A44"/>
<stop offset="1" stop-color="#C31162"/>
</linearGradient>
<linearGradient id="paint3_linear_6484_3331" x1="5.29726" y1="0.127775" x2="12.6748" y2="7.50536" gradientUnits="userSpaceOnUse">
<stop stop-color="#32A071"/>
<stop offset="0.0001" stop-color="#2DA771"/>
<stop offset="0.0002" stop-color="#15CF74"/>
<stop offset="0.0003" stop-color="#06E775"/>
<stop offset="1" stop-color="#00F076"/>
</linearGradient>
</defs>
</svg>
