<svg width="20" height="20" viewBox="0 0 20 20" fill="none" xmlns="http://www.w3.org/2000/svg">
<mask id="mask0_3420_28810" style="mask-type:alpha" maskUnits="userSpaceOnUse" x="0" y="0" width="20" height="20">
<rect width="20" height="20" fill="#D9D9D9"/>
</mask>
<g mask="url(#mask0_3420_28810)">
<path d="M10 2.5C5.86461 2.5 2.5 5.86461 2.5 10C2.5 11.2282 2.82352 12.3763 3.34814 13.3999L2.53516 16.3105C2.3458 16.9868 3.01447 17.6555 3.69092 17.4663L6.60376 16.6533C7.62653 17.1768 8.77291 17.5 10 17.5C14.1354 17.5 17.5 14.1354 17.5 10C17.5 5.86461 14.1354 2.5 10 2.5ZM10 3.625C13.5274 3.625 16.375 6.47264 16.375 10C16.375 13.5274 13.5274 16.375 10 16.375C8.87441 16.375 7.82148 16.0823 6.90332 15.5708C6.7739 15.4987 6.62125 15.4805 6.47852 15.5203L3.7085 16.293L4.48193 13.5244C4.52189 13.3815 4.50372 13.2285 4.4314 13.0989C3.91887 12.1801 3.625 11.1267 3.625 10C3.625 6.47264 6.47264 3.625 10 3.625ZM7.46509 6.62573C7.34546 6.62573 7.15217 6.6706 6.98755 6.84985C6.8233 7.02835 6.3606 7.46128 6.3606 8.34253C6.3606 9.22378 7.00193 10.0748 7.09155 10.1948C7.1808 10.3137 8.33025 12.1804 10.1509 12.8982C11.6636 13.4944 11.9713 13.3757 12.2998 13.3457C12.6283 13.3165 13.3598 12.9131 13.509 12.4946C13.6583 12.0761 13.6584 11.7182 13.6145 11.6443C13.5699 11.5697 13.4502 11.5244 13.271 11.4348C13.0921 11.3452 12.2121 10.9122 12.0479 10.8525C11.8836 10.7929 11.7635 10.7626 11.6443 10.9419C11.525 11.1211 11.182 11.5243 11.0774 11.6436C10.9728 11.7636 10.8685 11.7786 10.6892 11.689C10.5096 11.5986 9.93329 11.4099 9.24854 10.7998C8.71604 10.3254 8.3578 9.73906 8.25317 9.55981C8.14892 9.38131 8.24192 9.28321 8.33154 9.19434C8.41217 9.11409 8.51072 8.98548 8.60034 8.88086C8.68922 8.77623 8.7187 8.70201 8.77832 8.58276C8.83795 8.46389 8.8083 8.35891 8.76367 8.26929C8.71905 8.17966 8.3708 7.29358 8.21143 6.93921C8.07755 6.64146 7.93647 6.635 7.80859 6.63013C7.70434 6.626 7.58434 6.62573 7.46509 6.62573Z" fill="#151513"/>
</g>
</svg>
