<svg width="102" height="21" viewBox="0 0 102 21" fill="none" xmlns="http://www.w3.org/2000/svg">
<path d="M32.8 0H41.2C44.4 0 47 2.6 47 5.8V14.2C47 15.7383 46.3889 17.2135 45.3012 18.3012C44.2135 19.3889 42.7383 20 41.2 20H32.8C29.6 20 27 17.4 27 14.2V5.8C27 4.26174 27.6111 2.78649 28.6988 1.69878C29.7865 0.61107 31.2617 0 32.8 0ZM32.6 2C31.6452 2 30.7295 2.37928 30.0544 3.05442C29.3793 3.72955 29 4.64522 29 5.6V14.4C29 16.39 30.61 18 32.6 18H41.4C42.3548 18 43.2705 17.6207 43.9456 16.9456C44.6207 16.2705 45 15.3548 45 14.4V5.6C45 3.61 43.39 2 41.4 2H32.6ZM42.25 3.5C42.5815 3.5 42.8995 3.6317 43.1339 3.86612C43.3683 4.10054 43.5 4.41848 43.5 4.75C43.5 5.08152 43.3683 5.39946 43.1339 5.63388C42.8995 5.8683 42.5815 6 42.25 6C41.9185 6 41.6005 5.8683 41.3661 5.63388C41.1317 5.39946 41 5.08152 41 4.75C41 4.41848 41.1317 4.10054 41.3661 3.86612C41.6005 3.6317 41.9185 3.5 42.25 3.5ZM37 5C38.3261 5 39.5979 5.52678 40.5355 6.46447C41.4732 7.40215 42 8.67392 42 10C42 11.3261 41.4732 12.5979 40.5355 13.5355C39.5979 14.4732 38.3261 15 37 15C35.6739 15 34.4021 14.4732 33.4645 13.5355C32.5268 12.5979 32 11.3261 32 10C32 8.67392 32.5268 7.40215 33.4645 6.46447C34.4021 5.52678 35.6739 5 37 5ZM37 7C36.2044 7 35.4413 7.31607 34.8787 7.87868C34.3161 8.44129 34 9.20435 34 10C34 10.7956 34.3161 11.5587 34.8787 12.1213C35.4413 12.6839 36.2044 13 37 13C37.7956 13 38.5587 12.6839 39.1213 12.1213C39.6839 11.5587 40 10.7956 40 10C40 9.20435 39.6839 8.44129 39.1213 7.87868C38.5587 7.31607 37.7956 7 37 7Z" fill="black"/>
<path d="M17 3.91006C16.0832 2.98399 14.9912 2.24973 13.7876 1.75011C12.5841 1.25049 11.2931 0.99552 9.99 1.00006C4.53 1.00006 0.0800002 5.45006 0.0800002 10.9101C0.0800002 12.6601 0.54 14.3601 1.4 15.8601L0 21.0001L5.25 19.6201C6.7 20.4101 8.33 20.8301 9.99 20.8301C15.45 20.8301 19.9 16.3801 19.9 10.9201C19.9 8.27006 18.87 5.78006 17 3.91006ZM9.99 19.1501C8.51 19.1501 7.06 18.7501 5.79 18.0001L5.49 17.8201L2.37 18.6401L3.2 15.6001L3 15.2901C2.17775 13.977 1.74114 12.4593 1.74 10.9101C1.74 6.37006 5.44 2.67006 9.98 2.67006C12.18 2.67006 14.25 3.53006 15.8 5.09006C16.5675 5.85402 17.1757 6.76272 17.5894 7.76348C18.0031 8.76425 18.214 9.83717 18.21 10.9201C18.23 15.4601 14.53 19.1501 9.99 19.1501ZM14.51 12.9901C14.26 12.8701 13.04 12.2701 12.82 12.1801C12.59 12.1001 12.43 12.0601 12.26 12.3001C12.09 12.5501 11.62 13.1101 11.48 13.2701C11.34 13.4401 11.19 13.4601 10.94 13.3301C10.69 13.2101 9.89 12.9401 8.95 12.1001C8.21 11.4401 7.72 10.6301 7.57 10.3801C7.43 10.1301 7.55 10.0001 7.68 9.87006C7.79 9.76006 7.93 9.58006 8.05 9.44006C8.17 9.30006 8.22 9.19006 8.3 9.03006C8.38 8.86006 8.34 8.72006 8.28 8.60006C8.22 8.48006 7.72 7.26006 7.52 6.76006C7.32 6.28006 7.11 6.34006 6.96 6.33006H6.48C6.31 6.33006 6.05 6.39006 5.82 6.64006C5.6 6.89006 4.96 7.49006 4.96 8.71006C4.96 9.93006 5.85 11.1101 5.97 11.2701C6.09 11.4401 7.72 13.9401 10.2 15.0101C10.79 15.2701 11.25 15.4201 11.61 15.5301C12.2 15.7201 12.74 15.6901 13.17 15.6301C13.65 15.5601 14.64 15.0301 14.84 14.4501C15.05 13.8701 15.05 13.3801 14.98 13.2701C14.91 13.1601 14.76 13.1101 14.51 12.9901Z" fill="black"/>
<path d="M85.2364 4.35489C85.1221 4.29328 84.9939 4.26237 84.8641 4.26519C84.7343 4.26801 84.6075 4.30446 84.496 4.37097C84.3846 4.43749 84.2923 4.53179 84.2282 4.64465C84.1641 4.75752 84.1304 4.88509 84.1304 5.01489V14.5149C84.1304 14.7138 84.2094 14.9046 84.35 15.0452C84.4907 15.1859 84.6815 15.2649 84.8804 15.2649C85.0793 15.2649 85.27 15.1859 85.4107 15.0452C85.5514 14.9046 85.6304 14.7138 85.6304 14.5149V6.27089L91.0244 9.17489C91.2464 9.29489 91.5144 9.29489 91.7364 9.17489L97.1304 6.27089V14.5149C97.1304 14.7138 97.2094 14.9046 97.35 15.0452C97.4907 15.1859 97.6815 15.2649 97.8804 15.2649C98.0793 15.2649 98.27 15.1859 98.4107 15.0452C98.5514 14.9046 98.6304 14.7138 98.6304 14.5149V5.01489C98.6303 4.88509 98.5966 4.75752 98.5325 4.64465C98.4685 4.53179 98.3762 4.43749 98.2647 4.37097C98.1532 4.30446 98.0264 4.26801 97.8967 4.26519C97.7669 4.26237 97.6386 4.29328 97.5244 4.35489L91.3804 7.66289L85.2364 4.35489Z" fill="black"/>
<path fill-rule="evenodd" clip-rule="evenodd" d="M96.6906 1.23689C93.1576 0.921037 89.6035 0.921037 86.0706 1.23689L84.5526 1.37189C83.7618 1.44249 83.018 1.77757 82.4412 2.323C81.8644 2.86842 81.4882 3.59236 81.3736 4.37789C80.8755 7.78445 80.8755 11.2453 81.3736 14.6519C81.4885 15.4374 81.8649 16.1612 82.4419 16.7065C83.0189 17.2517 83.7628 17.5865 84.5536 17.6569L86.0696 17.7929C89.6036 18.1089 93.1576 18.1089 96.6916 17.7929L98.2086 17.6569C98.9991 17.5863 99.7428 17.2514 100.32 16.7062C100.896 16.1609 101.273 15.4372 101.388 14.6519C101.886 11.2453 101.886 7.78445 101.388 4.37789C101.273 3.59221 100.897 2.86815 100.32 2.32271C99.7425 1.77726 98.9984 1.44228 98.2076 1.37189L96.6916 1.23689H96.6906ZM86.2046 2.73089C89.649 2.42292 93.1141 2.42292 96.5586 2.73089L98.0756 2.86689C98.5303 2.90728 98.9582 3.0998 99.2901 3.41334C99.6219 3.72688 99.8384 4.14314 99.9046 4.59489C100.382 7.85754 100.382 11.1722 99.9046 14.4349C99.8384 14.8866 99.6219 15.3029 99.2901 15.6164C98.9582 15.93 98.5303 16.1225 98.0756 16.1629L96.5586 16.2989C93.1146 16.6069 89.6486 16.6069 86.2046 16.2989L84.6876 16.1629C84.2328 16.1225 83.8049 15.93 83.473 15.6164C83.1412 15.3029 82.9247 14.8866 82.8586 14.4349C82.3815 11.1722 82.3815 7.85754 82.8586 4.59489C82.9247 4.14314 83.1412 3.72688 83.473 3.41334C83.8049 3.0998 84.2328 2.90728 84.6876 2.86689L86.2046 2.73089Z" fill="black"/>
<path d="M64 18C66.1217 18 68.1566 17.1571 69.6569 15.6569C71.1571 14.1566 72 12.1217 72 10C72 7.87827 71.1571 5.84344 69.6569 4.34315C68.1566 2.84285 66.1217 2 64 2C61.8783 2 59.8434 2.84285 58.3431 4.34315C56.8429 5.84344 56 7.87827 56 10C56 12.1217 56.8429 14.1566 58.3431 15.6569C59.8434 17.1571 61.8783 18 64 18ZM64 20C58.477 20 54 15.523 54 10C54 4.477 58.477 0 64 0C69.523 0 74 4.477 74 10C74 15.523 69.523 20 64 20ZM60.89 11.17L58.392 10.391C57.852 10.226 57.849 9.854 58.513 9.587L68.246 5.827C68.81 5.597 69.132 5.888 68.949 6.617L67.291 14.437C67.175 14.994 66.84 15.127 66.375 14.87L63.824 12.982L62.635 14.13C62.513 14.248 62.414 14.349 62.226 14.374C62.039 14.4 61.885 14.344 61.772 14.034L60.902 11.163L60.89 11.17Z" fill="black"/>
</svg>
