<svg width="20" height="20" viewBox="0 0 20 20" fill="none" xmlns="http://www.w3.org/2000/svg">
<g clip-path="url(#clip0_2736_23533)">
<circle cx="10" cy="10" r="9.72222" stroke="#D5D5D5" stroke-width="0.555556"/>
<path d="M13.5888 7.40015H6.41098C6.18407 7.40015 5.96645 7.49029 5.80601 7.65073C5.64556 7.81118 5.55542 8.02879 5.55542 8.2557V13.3113C5.55542 13.5382 5.64556 13.7558 5.80601 13.9162C5.96645 14.0767 6.18407 14.1668 6.41098 14.1668H13.5888C13.8157 14.1668 14.0333 14.0767 14.1937 13.9162C14.3542 13.7558 14.4443 13.5382 14.4443 13.3113V8.2557C14.4443 8.02879 14.3542 7.81118 14.1937 7.65073C14.0333 7.49029 13.8157 7.40015 13.5888 7.40015V7.40015ZM13.7554 8.2557V13.3113C13.7554 13.3555 13.7379 13.3979 13.7066 13.4291C13.6753 13.4604 13.633 13.4779 13.5888 13.4779H6.41098C6.36677 13.4779 6.32438 13.4604 6.29312 13.4291C6.26187 13.3979 6.24431 13.3555 6.24431 13.3113V8.2557C6.24431 8.2115 6.26187 8.16911 6.29312 8.13785C6.32438 8.10659 6.36677 8.08904 6.41098 8.08904H13.5888C13.633 8.08904 13.6753 8.10659 13.7066 8.13785C13.7379 8.16911 13.7554 8.2115 13.7554 8.2557V8.2557Z" fill="#1C1B1F"/>
<path d="M8.84398 6.52783H11.1551V7.08339H11.8384V6.22228C11.8386 6.15288 11.8122 6.08605 11.7647 6.03545C11.7172 5.98485 11.6521 5.9543 11.5829 5.95005V5.95005C10.5312 5.79448 9.46233 5.79448 8.41065 5.95005C8.37635 5.95148 8.34267 5.95966 8.31153 5.97412C8.28039 5.98858 8.25242 6.00904 8.2292 6.03432C8.20597 6.05961 8.18797 6.08922 8.17621 6.12147C8.16444 6.15372 8.15916 6.18798 8.16065 6.22228V7.07783H8.84398V6.52783Z" fill="#1C1B1F"/>
</g>
<defs>
<clipPath id="clip0_2736_23533">
<rect width="20" height="20" fill="white"/>
</clipPath>
</defs>
</svg>
