<svg width="20" height="20" viewBox="0 0 20 20" fill="none" xmlns="http://www.w3.org/2000/svg">
<g clip-path="url(#clip0_2736_23540)">
<circle cx="10" cy="10" r="9.75" stroke="#D5D5D5" stroke-width="0.5"/>
<path d="M14.1963 9.49369L10.7 6.04022C10.5353 5.88732 10.3195 5.80243 10.0954 5.80243C9.87139 5.80243 9.65555 5.88732 9.49084 6.04022L5.84136 9.46615C5.71071 9.57851 5.61867 9.72956 5.57839 9.89771C5.5381 10.0659 5.55163 10.2425 5.61703 10.4025C5.67975 10.5667 5.79104 10.7076 5.93586 10.8061C6.08068 10.9046 6.25205 10.956 6.42681 10.9533H6.49794V13.4704C6.50081 13.6628 6.57875 13.8463 6.71491 13.9813C6.85107 14.1163 7.03453 14.192 7.22565 14.192H9.1352C9.32726 14.1934 9.51212 14.1184 9.64946 13.9833C9.7868 13.8481 9.86549 13.6637 9.86838 13.4704V11.9062C9.87465 11.875 9.89143 11.8471 9.91586 11.827C9.94029 11.8069 9.97087 11.7959 10.0024 11.7959C10.034 11.7959 10.0646 11.8069 10.089 11.827C10.1134 11.8471 10.1302 11.875 10.1365 11.9062V13.4759C10.1394 13.6683 10.2173 13.8518 10.3534 13.9868C10.4896 14.1218 10.6731 14.1975 10.8642 14.1975H12.7792C12.8741 14.1982 12.9681 14.1801 13.056 14.1442C13.1439 14.1084 13.2239 14.0554 13.2915 13.9884C13.3591 13.9214 13.4129 13.8417 13.4498 13.7537C13.4868 13.6658 13.5062 13.5714 13.5069 13.4759V10.9588H13.589C13.7606 10.9566 13.9277 10.9031 14.069 10.805C14.2103 10.7069 14.3194 10.5687 14.3824 10.408C14.445 10.2542 14.4608 10.0852 14.4276 9.92234C14.3945 9.75951 14.314 9.61029 14.1963 9.49369V9.49369ZM9.99969 11.0965C9.89335 11.0958 9.78791 11.1161 9.68938 11.1564C9.59086 11.1967 9.50119 11.2562 9.42548 11.3314C9.34978 11.4065 9.28953 11.496 9.24817 11.5946C9.20681 11.6933 9.18516 11.7991 9.18444 11.9062V13.4759C9.18376 13.4817 9.18195 13.4873 9.1791 13.4924C9.17625 13.4975 9.17242 13.502 9.16784 13.5056C9.16326 13.5092 9.15801 13.5118 9.1524 13.5133C9.1468 13.5149 9.14095 13.5153 9.1352 13.5145H7.22565C7.21791 13.5113 7.21123 13.5061 7.20638 13.4992C7.20154 13.4924 7.19873 13.4843 7.19829 13.4759V10.386C7.19688 10.3563 7.18416 10.3282 7.16276 10.3077C7.14136 10.2872 7.11294 10.2758 7.08339 10.2758H6.42681C6.38946 10.2765 6.35279 10.2658 6.32156 10.2451C6.29033 10.2245 6.266 10.1949 6.25172 10.1602C6.23744 10.128 6.23453 10.0918 6.24349 10.0578C6.25245 10.0237 6.27274 9.99373 6.30097 9.97288L9.96139 6.51941C9.99843 6.49126 10.0436 6.47603 10.09 6.47603C10.1364 6.47603 10.1815 6.49126 10.2186 6.51941L13.7148 9.97288C13.7399 9.99502 13.7567 10.025 13.7627 10.058C13.7686 10.091 13.7633 10.1251 13.7477 10.1546C13.7363 10.1881 13.715 10.2172 13.6866 10.2379C13.6582 10.2586 13.6241 10.2699 13.589 10.2703H12.9379C12.9089 10.2703 12.881 10.2819 12.8605 10.3026C12.84 10.3232 12.8284 10.3513 12.8284 10.3805V13.4704C12.8278 13.4762 12.826 13.4818 12.8231 13.4869C12.8203 13.492 12.8164 13.4965 12.8118 13.5001C12.8073 13.5037 12.802 13.5063 12.7964 13.5078C12.7908 13.5094 12.785 13.5097 12.7792 13.509H10.8642C10.8535 13.5091 10.8431 13.5052 10.835 13.4981C10.827 13.491 10.8218 13.4811 10.8204 13.4704V11.9062C10.8175 11.6895 10.7296 11.4827 10.5759 11.331C10.4221 11.1793 10.215 11.095 9.99969 11.0965V11.0965Z" fill="#1C1B1F"/>
</g>
<defs>
<clipPath id="clip0_2736_23540">
<rect width="20" height="20" fill="white"/>
</clipPath>
</defs>
</svg>
