<svg width="20" height="20" viewBox="0 0 20 20" fill="none" xmlns="http://www.w3.org/2000/svg">
<g clip-path="url(#clip0_2736_23549)">
<circle cx="10" cy="10" r="9.75" stroke="#D5D5D5" stroke-width="0.5"/>
<path d="M9.99967 5.55637C9.0398 5.53601 8.11087 5.88971 7.41661 6.5399C6.72236 7.19009 6.31945 8.0837 6.29626 9.02473C6.28981 9.77993 6.55168 10.5138 7.03694 11.1003L9.46903 14.1893C9.53452 14.2711 9.61861 14.3367 9.71459 14.381C9.81057 14.4252 9.91577 14.4468 10.0218 14.444C10.1279 14.4477 10.2334 14.4264 10.3295 14.3822C10.4257 14.3379 10.5096 14.2718 10.5745 14.1893L13.0066 11.1057C13.4705 10.5084 13.7158 9.77539 13.7031 9.02473C13.6799 8.0837 13.277 7.19009 12.5827 6.5399C11.8885 5.88971 10.9595 5.53601 9.99967 5.55637V5.55637ZM7.58969 10.6939C7.20516 10.2194 6.9966 9.63078 6.99825 9.02473C7.01996 8.26432 7.34789 7.54327 7.91034 7.01925C8.47278 6.49523 9.22398 6.21088 9.99967 6.22837C10.7754 6.21088 11.5266 6.49523 12.089 7.01925C12.6514 7.54327 12.9794 8.26432 13.0011 9.02473C12.9994 9.63278 12.7891 10.2226 12.4041 10.6993L10.0605 13.6853C10.0532 13.6944 10.044 13.7016 10.0335 13.7067C10.0229 13.7117 10.0114 13.7143 9.99967 13.7143C9.98796 13.7143 9.97641 13.7117 9.96588 13.7067C9.95534 13.7016 9.94611 13.6944 9.93887 13.6853L7.58969 10.6939Z" fill="#1C1B1F"/>
<path d="M12.0062 8.92722C11.9989 8.41217 11.7836 7.92097 11.4075 7.56134C11.0313 7.20171 10.5251 7.003 9.99973 7.00879C9.73986 7.00593 9.48196 7.05328 9.24076 7.14814C8.99955 7.24301 8.77977 7.38353 8.59397 7.56167C8.40816 7.73982 8.25996 7.9521 8.15784 8.18641C8.05571 8.42071 8.00167 8.67244 7.99878 8.92722C8.00606 9.44084 8.2208 9.93066 8.5959 10.2893C8.971 10.6479 9.47584 10.846 9.99973 10.8402C10.2596 10.8438 10.5176 10.7972 10.7591 10.703C11.0006 10.6088 11.2208 10.4689 11.4071 10.2912C11.5934 10.1136 11.7423 9.90167 11.845 9.66764C11.9478 9.4336 12.0026 9.18201 12.0062 8.92722V8.92722ZM8.68971 8.92722C8.68971 8.58802 8.82715 8.26272 9.07179 8.02287C9.31643 7.78301 9.64823 7.64827 9.9942 7.64827C10.3402 7.64827 10.672 7.78301 10.9166 8.02287C11.1612 8.26272 11.2987 8.58802 11.2987 8.92722C11.2987 9.26642 11.1612 9.59173 10.9166 9.83158C10.672 10.0714 10.3402 10.2062 9.9942 10.2062C9.64823 10.2062 9.31643 10.0714 9.07179 9.83158C8.82715 9.59173 8.68971 9.26642 8.68971 8.92722V8.92722Z" fill="#1C1B1F"/>
</g>
<defs>
<clipPath id="clip0_2736_23549">
<rect width="20" height="20" fill="white"/>
</clipPath>
</defs>
</svg>
